<?xml version="1.0" encoding="UTF-8"?>
<!DOCTYPE svg PUBLIC "-//W3C//DTD SVG 1.1//EN" "http://www.w3.org/Graphics/SVG/1.1/DTD/svg11.dtd">
<svg xmlns="http://www.w3.org/2000/svg" version="1.1" width="862px" height="365px" style="shape-rendering:geometricPrecision; text-rendering:geometricPrecision; image-rendering:optimizeQuality; fill-rule:evenodd; clip-rule:evenodd" xmlns:xlink="http://www.w3.org/1999/xlink">
<g><path style="opacity:0.978" fill="#000000" d="M 295.5,364.5 C 290.833,364.5 286.167,364.5 281.5,364.5C 278.972,363.492 276.805,361.826 275,359.5C 259.409,340.571 243.075,322.238 226,304.5C 225.626,303.584 225.126,302.75 224.5,302C 224.234,296.121 224.567,290.121 225.5,284C 212.872,269.036 199.872,254.369 186.5,240C 140.412,256.249 98.7453,248.582 61.5,217C 38.9336,194.72 27.2669,167.886 26.5,136.5C 41.1667,136.5 55.8333,136.5 70.5,136.5C 73.9124,172.156 92.9124,194.656 127.5,204C 146.474,207.396 164.807,205.396 182.5,198C 179.292,193.753 176.458,189.253 174,184.5C 173.439,183.978 172.772,183.645 172,183.5C 151.793,191.31 132.293,189.81 113.5,179C 100.215,169.543 92.5488,156.71 90.5,140.5C 90.5,139.5 90.5,138.5 90.5,137.5C 104.677,137.829 118.677,137.496 132.5,136.5C 136.884,141.313 141.55,141.647 146.5,137.5C 168.5,137.5 190.5,137.5 212.5,137.5C 215.213,102.783 201.213,77.6163 170.5,62C 162.86,58.5902 154.86,57.0902 146.5,57.5C 145.201,53.6816 142.534,52.1816 138.5,53C 136.859,54.129 135.859,55.629 135.5,57.5C 135.167,57.5 134.833,57.5 134.5,57.5C 105.973,60.3523 86.1401,75.019 75,101.5C 72.4115,108.277 70.9115,115.277 70.5,122.5C 55.8333,122.5 41.1667,122.5 26.5,122.5C 31.4831,76.3577 55.1498,43.8577 97.5,25C 144.534,8.60693 186.534,16.9403 223.5,50C 253.897,82.7511 263.73,120.918 253,164.5C 245.134,190.438 230.3,211.271 208.5,227C 219.833,240.333 231.167,253.667 242.5,267C 250.53,267.565 258.197,269.565 265.5,273C 281.3,292.633 297.634,311.799 314.5,330.5C 318.404,347.588 312.07,358.921 295.5,364.5 Z"/></g>
<g><path style="opacity:1" fill="#f0cb5c" d="M 133.5,29.5 C 134.833,29.5 136.167,29.5 137.5,29.5C 137.5,34.8333 137.5,40.1667 137.5,45.5C 136.167,45.5 134.833,45.5 133.5,45.5C 133.823,41.774 133.489,38.1073 132.5,34.5C 130.833,36.1667 129.833,35.8333 129.5,33.5C 129.667,32.8333 129.833,32.1667 130,31.5C 131.302,30.9152 132.469,30.2485 133.5,29.5 Z"/></g>
<g><path style="opacity:1" fill="#ebc659" d="M 142.5,29.5 C 152.958,30.1888 154.291,34.3555 146.5,42C 148.9,42.1858 151.234,42.6858 153.5,43.5C 153.291,44.086 152.957,44.586 152.5,45C 148.514,45.4988 144.514,45.6655 140.5,45.5C 140.351,44.448 140.517,43.448 141,42.5C 143.54,40.2953 145.707,37.7953 147.5,35C 145.542,33.421 143.542,33.5876 141.5,35.5C 140.23,33.2432 140.564,31.2432 142.5,29.5 Z"/></g>
<g><path style="opacity:1" fill="#cecece" d="M 187.5,43.5 C 188.5,43.5 189.5,43.5 190.5,43.5C 190.5,47.8333 190.5,52.1667 190.5,56.5C 189.5,56.5 188.5,56.5 187.5,56.5C 187.82,53.1016 187.487,49.7683 186.5,46.5C 184.786,47.6085 184.119,46.9418 184.5,44.5C 185.791,44.7373 186.791,44.404 187.5,43.5 Z"/></g>
<g><path style="opacity:1" fill="#cecece" d="M 79.5,47.5 C 80.5,47.5 81.5,47.5 82.5,47.5C 82.5,51.8333 82.5,56.1667 82.5,60.5C 81.5,60.5 80.5,60.5 79.5,60.5C 79.8204,57.1016 79.487,53.7683 78.5,50.5C 76.7859,51.6085 76.1192,50.9418 76.5,48.5C 77.791,48.7373 78.791,48.404 79.5,47.5 Z"/></g>
<g><path style="opacity:1" fill="#eeeeee" d="M 86.5,47.5 C 87.5,47.5 88.5,47.5 89.5,47.5C 89.8256,51.8839 89.4922,56.2172 88.5,60.5C 87.513,57.2317 87.1796,53.8984 87.5,50.5C 86.448,50.6495 85.448,50.4828 84.5,50C 85.3805,49.2917 86.0472,48.4584 86.5,47.5 Z"/></g>
<g><path style="opacity:1" fill="#ececed" d="M 146.5,57.5 C 146.5,62.8333 146.5,68.1667 146.5,73.5C 146.5,89.8333 146.5,106.167 146.5,122.5C 145.5,121.833 144.5,121.167 143.5,120.5C 143.5,104.833 143.5,89.1667 143.5,73.5C 143.666,68.1563 143.499,62.8229 143,57.5C 141.451,54.9974 139.784,54.9974 138,57.5C 137.501,62.8229 137.334,68.1563 137.5,73.5C 137.5,88.8333 137.5,104.167 137.5,119.5C 136.486,120.674 135.153,121.34 133.5,121.5C 124.489,110.128 115.489,98.7942 106.5,87.5C 105.252,83.3954 102.585,81.5621 98.5,82C 97.4724,85.7855 98.8057,88.6188 102.5,90.5C 110.353,101.538 118.686,112.204 127.5,122.5C 128.402,124.341 129.736,125.674 131.5,126.5C 130.766,127.708 130.433,129.041 130.5,130.5C 127.833,127.833 125.167,125.167 122.5,122.5C 115.541,112.874 108.208,103.541 100.5,94.5C 98.8874,91.7139 97.054,89.0472 95,86.5C 94.0041,79.8336 96.8374,77.3336 103.5,79C 105.402,80.7297 107.069,82.563 108.5,84.5C 116.833,95.1667 125.167,105.833 133.5,116.5C 133.56,117.043 133.893,117.376 134.5,117.5C 135.5,97.5111 135.833,77.5111 135.5,57.5C 135.859,55.629 136.859,54.129 138.5,53C 142.534,52.1816 145.201,53.6816 146.5,57.5 Z"/></g>
<g><path style="opacity:0.999" fill="#4e3d9c" d="M 134.5,57.5 C 134.5,63.1667 134.5,68.8333 134.5,74.5C 124.823,75.2799 116.157,78.6132 108.5,84.5C 107.069,82.563 105.402,80.7297 103.5,79C 96.8374,77.3336 94.0041,79.8336 95,86.5C 97.054,89.0472 98.8874,91.7139 100.5,94.5C 93.827,102.511 90.4937,111.844 90.5,122.5C 101.167,122.5 111.833,122.5 122.5,122.5C 125.167,125.167 127.833,127.833 130.5,130.5C 130.971,132.579 131.637,134.579 132.5,136.5C 118.167,136.5 103.833,136.5 89.5,136.5C 89.2322,138.099 89.5655,139.432 90.5,140.5C 92.5488,156.71 100.215,169.543 113.5,179C 132.293,189.81 151.793,191.31 172,183.5C 172.772,183.645 173.439,183.978 174,184.5C 176.458,189.253 179.292,193.753 182.5,198C 164.807,205.396 146.474,207.396 127.5,204C 92.9124,194.656 73.9124,172.156 70.5,136.5C 55.8333,136.5 41.1667,136.5 26.5,136.5C 26.5,131.833 26.5,127.167 26.5,122.5C 41.1667,122.5 55.8333,122.5 70.5,122.5C 70.9115,115.277 72.4115,108.277 75,101.5C 86.1401,75.019 105.973,60.3523 134.5,57.5 Z"/></g>
<g><path style="opacity:1" fill="#5847a0" d="M 143.5,73.5 C 141.5,73.5 139.5,73.5 137.5,73.5C 137.334,68.1563 137.501,62.8229 138,57.5C 139.784,54.9974 141.451,54.9974 143,57.5C 143.499,62.8229 143.666,68.1563 143.5,73.5 Z"/></g>
<g><path style="opacity:1" fill="#4d3d9a" d="M 146.5,57.5 C 154.86,57.0902 162.86,58.5902 170.5,62C 201.213,77.6163 215.213,102.783 212.5,137.5C 190.5,137.5 168.5,137.5 146.5,137.5C 148.686,132.975 149.019,128.308 147.5,123.5C 162.658,122.504 177.991,122.17 193.5,122.5C 190.434,94.1005 174.767,77.7671 146.5,73.5C 146.5,68.1667 146.5,62.8333 146.5,57.5 Z"/></g>
<g><path style="opacity:1" fill="#030304" d="M 134.5,74.5 C 134.829,88.6766 134.496,102.677 133.5,116.5C 125.167,105.833 116.833,95.1667 108.5,84.5C 116.157,78.6132 124.823,75.2799 134.5,74.5 Z"/></g>
<g><path style="opacity:1" fill="#aaa9b0" d="M 134.5,57.5 C 134.833,57.5 135.167,57.5 135.5,57.5C 135.833,77.5111 135.5,97.5111 134.5,117.5C 133.893,117.376 133.56,117.043 133.5,116.5C 134.496,102.677 134.829,88.6766 134.5,74.5C 134.5,68.8333 134.5,63.1667 134.5,57.5 Z"/></g>
<g><path style="opacity:1" fill="#121212" d="M 137.5,73.5 C 139.5,73.5 141.5,73.5 143.5,73.5C 143.5,89.1667 143.5,104.833 143.5,120.5C 141.621,119.659 139.621,119.325 137.5,119.5C 137.5,104.167 137.5,88.8333 137.5,73.5 Z"/></g>
<g><path style="opacity:1" fill="#040404" d="M 146.5,73.5 C 174.767,77.7671 190.434,94.1005 193.5,122.5C 177.991,122.17 162.658,122.504 147.5,123.5C 146.833,123.5 146.5,123.167 146.5,122.5C 146.5,106.167 146.5,89.8333 146.5,73.5 Z"/></g>
<g><path style="opacity:1" fill="#54439e" d="M 106.5,87.5 C 105.167,88.5 103.833,89.5 102.5,90.5C 98.8057,88.6188 97.4724,85.7855 98.5,82C 102.585,81.5621 105.252,83.3954 106.5,87.5 Z"/></g>
<g><path style="opacity:0.951" fill="#000000" d="M 352.5,81.5 C 358.509,81.3338 364.509,81.5005 370.5,82C 383.075,85.5464 388.908,93.7131 388,106.5C 387.215,108.286 386.049,109.786 384.5,111C 380.369,112.867 376.036,113.7 371.5,113.5C 357.062,111.813 342.729,109.479 328.5,106.5C 327.833,106.833 327.167,107.167 326.5,107.5C 327.145,118.136 327.812,128.803 328.5,139.5C 338.406,136.678 348.406,136.178 358.5,138C 363.704,139.572 366.037,143.072 365.5,148.5C 364.34,158.833 358.673,165.333 348.5,168C 341.586,168.811 334.752,168.645 328,167.5C 327.5,182.163 327.333,196.83 327.5,211.5C 319.5,211.5 311.5,211.5 303.5,211.5C 303.5,195.5 303.5,179.5 303.5,163.5C 301.5,163.5 299.5,163.5 297.5,163.5C 297.5,156.833 297.5,150.167 297.5,143.5C 299.5,143.5 301.5,143.5 303.5,143.5C 303.5,131.833 303.5,120.167 303.5,108.5C 308.875,108.828 314.208,108.495 319.5,107.5C 320.464,100.558 320.797,93.5581 320.5,86.5C 331.549,86.4562 342.215,84.7895 352.5,81.5 Z"/></g>
<g><path style="opacity:1" fill="#d7d7d7" d="M 55.5,85.5 C 63.0035,84.8526 65.5035,88.186 63,95.5C 61.3342,98.3788 58.8342,99.2121 55.5,98C 54.3333,97.5 53.5,96.6667 53,95.5C 51.8634,91.5369 52.6967,88.2036 55.5,85.5 Z"/></g>
<g><path style="opacity:1" fill="#cecece" d="M 47.5,85.5 C 48.5,85.5 49.5,85.5 50.5,85.5C 50.5,89.8333 50.5,94.1667 50.5,98.5C 49.5,98.5 48.5,98.5 47.5,98.5C 47.8204,95.1016 47.487,91.7683 46.5,88.5C 44.7859,89.6085 44.1192,88.9418 44.5,86.5C 45.791,86.7373 46.791,86.404 47.5,85.5 Z"/></g>
<g><path style="opacity:0.869" fill="#000000" d="M 301.5,86.5 C 304.167,86.5 306.833,86.5 309.5,86.5C 309.5,93.1667 309.5,99.8333 309.5,106.5C 298.102,109.248 292.935,104.914 294,93.5C 295.742,90.2543 298.242,87.921 301.5,86.5 Z"/></g>
<g><path style="opacity:1" fill="#030303" d="M 55.5,87.5 C 57.4672,87.2606 59.3005,87.5939 61,88.5C 61.769,91.0991 61.6023,93.5991 60.5,96C 58.7412,96.7975 57.0745,96.6309 55.5,95.5C 54.2974,92.8401 54.2974,90.1735 55.5,87.5 Z"/></g>
<g><path style="opacity:1" fill="#0d0d0d" d="M 106.5,87.5 C 115.489,98.7942 124.489,110.128 133.5,121.5C 133.5,122.167 133.167,122.5 132.5,122.5C 130.833,122.5 129.167,122.5 127.5,122.5C 118.686,112.204 110.353,101.538 102.5,90.5C 103.833,89.5 105.167,88.5 106.5,87.5 Z"/></g>
<g><path style="opacity:0.919" fill="#000000" d="M 783.5,87.5 C 787.226,87.1774 790.893,87.5108 794.5,88.5C 791.298,89.2349 788.298,90.4015 785.5,92C 786.784,92.6838 787.951,92.5171 789,91.5C 789.167,92 789.333,92.5 789.5,93C 787.66,95.5046 785.827,98.0046 784,100.5C 779.749,103.042 775.582,105.709 771.5,108.5C 771.833,108.833 772.167,109.167 772.5,109.5C 775.251,107.707 778.084,106.041 781,104.5C 780.022,108.735 778.855,113.069 777.5,117.5C 774.126,120.51 770.792,123.51 767.5,126.5C 767.667,126.833 767.833,127.167 768,127.5C 771,125.167 774,122.833 777,120.5C 776.872,124.792 776.539,129.126 776,133.5C 773.54,134.958 771.373,136.791 769.5,139C 772.272,138.948 774.606,137.781 776.5,135.5C 778.487,140.075 779.154,144.742 778.5,149.5C 776.641,151.192 774.641,152.692 772.5,154C 773,154.5 773.5,155 774,155.5C 776.257,153.954 778.424,152.288 780.5,150.5C 781.662,153.494 783.329,156.16 785.5,158.5C 783.5,161.5 781.5,164.5 779.5,167.5C 778.501,182.152 778.167,196.818 778.5,211.5C 770.5,211.5 762.5,211.5 754.5,211.5C 754.5,170.5 754.5,129.5 754.5,88.5C 764.348,88.8271 774.014,88.4938 783.5,87.5 Z"/></g>
<g><path style="opacity:0.809" fill="#000000" d="M 810.5,89.5 C 806.559,91.7722 803.225,94.7722 800.5,98.5C 799.035,95.7358 797.701,92.9025 796.5,90C 796.645,89.228 796.978,88.5613 797.5,88C 802.167,87.3333 806.833,87.3333 811.5,88C 810.944,88.3826 810.611,88.8826 810.5,89.5 Z"/></g>
<g><path style="opacity:0.918" fill="#000000" d="M 790.5,164.5 C 790.351,163.448 790.517,162.448 791,161.5C 797.767,163.733 804.601,165.733 811.5,167.5C 811.785,165.712 811.452,164.045 810.5,162.5C 808.447,164.936 806.614,164.602 805,161.5C 802.922,159.319 803.089,157.319 805.5,155.5C 804.167,155.5 802.833,155.5 801.5,155.5C 799.368,152.104 798.035,148.437 797.5,144.5C 798.978,144.762 800.311,144.429 801.5,143.5C 799.922,142.928 798.422,142.594 797,142.5C 795.684,139.312 795.184,135.978 795.5,132.5C 800.833,131.833 800.833,131.167 795.5,130.5C 795.334,125.821 795.501,121.155 796,116.5C 797.692,116.324 799.192,115.824 800.5,115C 797.118,111.467 797.118,107.634 800.5,103.5C 801.5,104.167 802.5,104.833 803.5,105.5C 803.833,105.167 804.167,104.833 804.5,104.5C 803.263,103.719 802.263,102.719 801.5,101.5C 803.306,98.528 805.306,95.6947 807.5,93C 809.387,92.8374 810.887,93.6707 812,95.5C 812.5,95 813,94.5 813.5,94C 811.561,93.0922 810.561,91.5922 810.5,89.5C 818.271,86.2109 825.604,86.8776 832.5,91.5C 833.725,93.8433 833.059,95.6766 830.5,97C 832.417,96.9725 834.084,96.1392 835.5,94.5C 838.381,97.0921 840.381,100.259 841.5,104C 841.05,105.285 840.383,106.452 839.5,107.5C 840.868,108.594 842.035,108.26 843,106.5C 844.958,111.329 846.124,116.329 846.5,121.5C 841.167,122.167 841.167,122.833 846.5,123.5C 846.5,127.833 846.5,132.167 846.5,136.5C 838.602,136.886 838.602,137.886 846.5,139.5C 845.619,143.376 844.286,147.042 842.5,150.5C 840.689,148.838 839.022,148.672 837.5,150C 839.221,150.739 840.887,151.573 842.5,152.5C 840.813,155.884 838.647,158.884 836,161.5C 834.607,160.385 833.107,159.885 831.5,160C 833.329,161.113 834.163,162.613 834,164.5C 831.261,166.756 828.427,168.756 825.5,170.5C 832.31,183.954 838.977,197.454 845.5,211C 836.5,211.667 827.5,211.667 818.5,211C 811.765,197.696 805.432,184.196 799.5,170.5C 796.464,168.448 793.464,166.448 790.5,164.5 Z M 818.5,106.5 C 823.825,106.107 827.991,108.107 831,112.5C 836.995,123.187 836.995,133.854 831,144.5C 824.381,152.489 817.715,152.489 811,144.5C 805.005,133.854 805.005,123.187 811,112.5C 813.114,109.879 815.614,107.879 818.5,106.5 Z"/></g>
<g><path style="opacity:0.948" fill="#000000" d="M 391.5,88.5 C 399.5,88.5 407.5,88.5 415.5,88.5C 415.5,129.5 415.5,170.5 415.5,211.5C 407.5,211.5 399.5,211.5 391.5,211.5C 391.5,170.5 391.5,129.5 391.5,88.5 Z"/></g>
<g><path style="opacity:0.956" fill="#000000" d="M 429.5,88.5 C 437.507,88.3336 445.507,88.5003 453.5,89C 472.124,116.414 490.624,143.914 509,171.5C 509.5,143.835 509.667,116.169 509.5,88.5C 517.5,88.5 525.5,88.5 533.5,88.5C 533.5,129.5 533.5,170.5 533.5,211.5C 525.493,211.666 517.493,211.5 509.5,211C 490.876,183.586 472.376,156.086 454,128.5C 453.5,156.165 453.333,183.831 453.5,211.5C 445.5,211.5 437.5,211.5 429.5,211.5C 429.5,170.5 429.5,129.5 429.5,88.5 Z"/></g>
<g><path style="opacity:0.957" fill="#000000" d="M 550.5,88.5 C 570.869,88.087 591.203,88.587 611.5,90C 636.228,95.3942 650.728,110.561 655,135.5C 659.078,157.118 654.745,176.784 642,194.5C 632.663,203.585 621.496,209.085 608.5,211C 589.191,212.51 569.858,212.843 550.5,212C 547.585,209.918 546.585,207.584 547.5,205C 548.147,206.609 548.98,208.109 550,209.5C 550.5,169.168 550.667,128.835 550.5,88.5 Z M 600.5,109.5 C 614.63,110.25 616.964,115.75 607.5,126C 601.179,129.811 595.345,129.311 590,124.5C 588.902,120.495 589.735,116.995 592.5,114C 595.099,112.205 597.766,110.705 600.5,109.5 Z M 568.5,120.5 C 573.639,119.739 577.973,121.239 581.5,125C 584.464,128.966 587.797,132.633 591.5,136C 610.345,147.456 610.012,158.122 590.5,168C 585.84,171.66 581.507,175.66 577.5,180C 571.865,183.668 566.699,183.168 562,178.5C 561.833,176.167 561.667,173.833 561.5,171.5C 562.262,164.621 563.262,157.788 564.5,151C 564.017,144.587 563.017,138.253 561.5,132C 561.643,126.718 563.976,122.885 568.5,120.5 Z M 619.5,126.5 C 624.901,125.966 629.901,127.133 634.5,130C 637.776,136.342 636.442,141.508 630.5,145.5C 624.059,149.646 617.726,149.479 611.5,145C 607.918,140.99 607.752,136.823 611,132.5C 613.637,130.109 616.47,128.109 619.5,126.5 Z M 619.5,155.5 C 626.129,155.233 631.629,157.566 636,162.5C 638.66,171.867 634.994,176.867 625,177.5C 614.319,177.161 609.319,171.828 610,161.5C 612.619,158.48 615.786,156.48 619.5,155.5 Z M 593.5,175.5 C 601.498,174.213 607.665,176.88 612,183.5C 612.706,185.971 612.373,188.305 611,190.5C 603.259,195.944 596.259,194.944 590,187.5C 587.454,182.34 588.621,178.34 593.5,175.5 Z"/></g>
<g><path style="opacity:0.963" fill="#000000" d="M 662.5,88.5 C 689.5,88.5 716.5,88.5 743.5,88.5C 743.5,94.8333 743.5,101.167 743.5,107.5C 724.5,107.5 705.5,107.5 686.5,107.5C 686.5,118.5 686.5,129.5 686.5,140.5C 703.833,140.5 721.167,140.5 738.5,140.5C 738.5,146.833 738.5,153.167 738.5,159.5C 721.167,159.5 703.833,159.5 686.5,159.5C 686.5,170.833 686.5,182.167 686.5,193.5C 705.5,193.5 724.5,193.5 743.5,193.5C 743.5,199.5 743.5,205.5 743.5,211.5C 716.5,211.5 689.5,211.5 662.5,211.5C 662.5,170.5 662.5,129.5 662.5,88.5 Z"/></g>
<g><path style="opacity:0.834" fill="#000000" d="M 793.5,91.5 C 795.947,94.3646 797.947,97.6979 799.5,101.5C 797.889,104.387 796.556,107.387 795.5,110.5C 792.126,107.49 788.792,104.49 785.5,101.5C 787.81,97.8591 790.477,94.5257 793.5,91.5 Z"/></g>
<g><path style="opacity:1" fill="#030304" d="M 100.5,94.5 C 108.208,103.541 115.541,112.874 122.5,122.5C 111.833,122.5 101.167,122.5 90.5,122.5C 90.4937,111.844 93.827,102.511 100.5,94.5 Z"/></g>
<g><path style="opacity:1" fill="#dedede" d="M 222.5,85.5 C 224.792,85.2436 226.959,85.5769 229,86.5C 229.045,90.2496 227.545,93.4162 224.5,96C 226.577,96.1922 228.577,96.6922 230.5,97.5C 227.216,98.657 223.882,98.8236 220.5,98C 223.6,95.0814 225.6,91.5814 226.5,87.5C 224.856,87.2865 223.356,87.6198 222,88.5C 221.53,87.4232 221.697,86.4232 222.5,85.5 Z"/></g>
<g><path style="opacity:0.854" fill="#000000" d="M 783.5,103.5 C 787.798,106.463 791.798,109.797 795.5,113.5C 794.211,118.093 793.211,122.76 792.5,127.5C 787.548,124.87 783.215,121.537 779.5,117.5C 780.637,112.757 781.971,108.091 783.5,103.5 Z"/></g>
<g><path style="opacity:0.905" fill="#000000" d="M 817.5,108.5 C 821.219,108.002 824.553,108.836 827.5,111C 833.521,119.359 835.021,128.526 832,138.5C 829.461,147.352 823.961,150.185 815.5,147C 814.643,146.311 813.977,145.478 813.5,144.5C 816.167,133.833 816.167,123.167 813.5,112.5C 814.867,111.16 816.2,109.827 817.5,108.5 Z"/></g>
<g><path style="opacity:1" fill="#f8d261" d="M 137.5,119.5 C 139.621,119.325 141.621,119.659 143.5,120.5C 144.5,121.167 145.5,121.833 146.5,122.5C 146.5,123.167 146.833,123.5 147.5,123.5C 149.019,128.308 148.686,132.975 146.5,137.5C 141.55,141.647 136.884,141.313 132.5,136.5C 131.637,134.579 130.971,132.579 130.5,130.5C 130.433,129.041 130.766,127.708 131.5,126.5C 131.833,125.167 132.167,123.833 132.5,122.5C 133.167,122.5 133.5,122.167 133.5,121.5C 135.153,121.34 136.486,120.674 137.5,119.5 Z"/></g>
<g><path style="opacity:0.811" fill="#000000" d="M 778.5,121.5 C 783.696,123.852 788.53,126.852 793,130.5C 793.256,133.557 793.756,136.557 794.5,139.5C 794.167,139.833 793.833,140.167 793.5,140.5C 788.833,138.167 784.167,135.833 779.5,133.5C 778.509,129.555 778.176,125.555 778.5,121.5 Z"/></g>
<g><path style="opacity:1" fill="#5d4aa0" d="M 127.5,122.5 C 129.167,122.5 130.833,122.5 132.5,122.5C 132.167,123.833 131.833,125.167 131.5,126.5C 129.736,125.674 128.402,124.341 127.5,122.5 Z"/></g>
<g><path style="opacity:1" fill="#e1be55" d="M 231.5,126.5 C 237.986,124.835 240.819,127.168 240,133.5C 239.5,134 239,134.5 238.5,135C 242.072,137.626 242.405,140.626 239.5,144C 236.312,145.316 232.978,145.816 229.5,145.5C 229.238,144.022 229.571,142.689 230.5,141.5C 234.844,143.588 236.844,142.255 236.5,137.5C 234.833,137.5 233.167,137.5 231.5,137.5C 231.5,136.5 231.5,135.5 231.5,134.5C 233.912,134.756 235.579,133.756 236.5,131.5C 236.167,130.5 235.5,129.833 234.5,129.5C 229.691,132.208 228.691,131.208 231.5,126.5 Z"/></g>
<g><path style="opacity:0.82" fill="#000000" d="M 778.5,135.5 C 784.09,137.628 789.423,140.295 794.5,143.5C 795.636,146.907 796.969,150.241 798.5,153.5C 798,153.833 797.5,154.167 797,154.5C 792.167,152.667 787.333,150.833 782.5,149C 780.781,144.624 779.447,140.124 778.5,135.5 Z"/></g>
<g><path style="opacity:1" fill="#302662" d="M 132.5,136.5 C 118.677,137.496 104.677,137.829 90.5,137.5C 90.5,138.5 90.5,139.5 90.5,140.5C 89.5655,139.432 89.2322,138.099 89.5,136.5C 103.833,136.5 118.167,136.5 132.5,136.5 Z"/></g>
<g><path style="opacity:0.883" fill="#000000" d="M 276.5,143.5 C 279.833,143.5 283.167,143.5 286.5,143.5C 286.5,150.167 286.5,156.833 286.5,163.5C 275.176,164.674 270.009,159.674 271,148.5C 272.352,146.251 274.185,144.584 276.5,143.5 Z"/></g>
<g><path style="opacity:1" fill="#f3f3f3" d="M 184.5,144.5 C 199.32,143.488 203.82,149.821 198,163.5C 194.5,167 191,170.5 187.5,174C 191.75,174.232 192.417,175.732 189.5,178.5C 185.555,179.491 181.555,179.824 177.5,179.5C 179.165,174.133 182.499,169.8 187.5,166.5C 190.248,163.919 192.414,160.919 194,157.5C 194.833,151.667 192.333,149.167 186.5,150C 184.845,151.444 184.178,153.278 184.5,155.5C 182.167,155.5 179.833,155.5 177.5,155.5C 177.813,150.526 180.146,146.859 184.5,144.5 Z"/></g>
<g><path style="opacity:0.741" fill="#000000" d="M 783.5,151.5 C 789.146,153.653 794.812,155.82 800.5,158C 801.376,159.586 802.376,161.086 803.5,162.5C 798.249,162.028 792.916,160.861 787.5,159C 785.506,156.842 784.172,154.342 783.5,151.5 Z"/></g>
<g><path style="opacity:1" fill="#ededed" d="M 213.5,154.5 C 215.167,154.5 216.833,154.5 218.5,154.5C 218.335,157.85 218.502,161.183 219,164.5C 222.397,161.019 226.064,160.686 230,163.5C 231.404,169.044 231.904,174.71 231.5,180.5C 229.833,180.5 228.167,180.5 226.5,180.5C 226.666,176.154 226.499,171.821 226,167.5C 223.408,166.018 221.075,166.352 219,168.5C 218.501,172.486 218.334,176.486 218.5,180.5C 216.833,180.5 215.167,180.5 213.5,180.5C 213.5,171.833 213.5,163.167 213.5,154.5 Z"/></g>
<g><path style="opacity:1" fill="#fbfbfb" d="M 204.5,161.5 C 206.833,161.5 209.167,161.5 211.5,161.5C 211.5,168.5 211.5,175.5 211.5,182.5C 212.833,182.5 214.167,182.5 215.5,182.5C 215.5,184.167 215.5,185.833 215.5,187.5C 214.167,187.5 212.833,187.5 211.5,187.5C 211.5,189.5 211.5,191.5 211.5,193.5C 209.5,193.5 207.5,193.5 205.5,193.5C 205.5,191.5 205.5,189.5 205.5,187.5C 200.167,187.5 194.833,187.5 189.5,187.5C 189.338,185.473 189.505,183.473 190,181.5C 194.697,174.652 199.53,167.985 204.5,161.5 Z"/></g>
<g><path style="opacity:1" fill="#767676" d="M 204.5,161.5 C 206.948,160.527 209.615,160.194 212.5,160.5C 212.5,167.5 212.5,174.5 212.5,181.5C 213.833,181.5 215.167,181.5 216.5,181.5C 216.795,183.735 216.461,185.735 215.5,187.5C 215.5,185.833 215.5,184.167 215.5,182.5C 214.167,182.5 212.833,182.5 211.5,182.5C 211.5,175.5 211.5,168.5 211.5,161.5C 209.167,161.5 206.833,161.5 204.5,161.5 Z"/></g>
<g><path style="opacity:0.771" fill="#000000" d="M 790.5,164.5 C 791.031,166.624 792.365,168.124 794.5,169C 790.179,169.499 785.846,169.666 781.5,169.5C 782.126,166.685 783.46,164.185 785.5,162C 787.435,162.058 789.102,162.891 790.5,164.5 Z"/></g>
<g><path style="opacity:1" fill="#cfcfcf" d="M 50.5,162.5 C 56.8895,161.218 58.8895,163.551 56.5,169.5C 59.7122,175.804 57.7122,178.304 50.5,177C 47.8997,174.541 47.8997,172.041 50.5,169.5C 47.8521,167.132 47.8521,164.798 50.5,162.5 Z"/></g>
<g><path style="opacity:1" fill="#000000" d="M 51.5,164.5 C 52.8333,164.5 54.1667,164.5 55.5,164.5C 55.7778,166.346 55.1112,167.68 53.5,168.5C 51.8888,167.68 51.2222,166.346 51.5,164.5 Z"/></g>
<g><path style="opacity:1" fill="#919191" d="M 204.5,169.5 C 204.56,168.957 204.893,168.624 205.5,168.5C 206.493,173.12 206.827,177.786 206.5,182.5C 203.102,182.82 199.768,182.487 196.5,181.5C 196.624,180.893 196.957,180.56 197.5,180.5C 199.948,181.473 202.615,181.806 205.5,181.5C 205.817,177.298 205.483,173.298 204.5,169.5 Z"/></g>
<g><path style="opacity:1" fill="#0c0c0c" d="M 204.5,169.5 C 205.483,173.298 205.817,177.298 205.5,181.5C 202.615,181.806 199.948,181.473 197.5,180.5C 200.094,176.974 202.427,173.308 204.5,169.5 Z"/></g>
<g><path style="opacity:1" fill="#020202" d="M 52.5,170.5 C 54.7593,171.344 55.7593,173.011 55.5,175.5C 50.5162,175.856 49.5162,174.189 52.5,170.5 Z"/></g>
<g><path style="opacity:1" fill="#d8d8d8" d="M 83.5,207.5 C 86.8984,207.18 90.2317,207.513 93.5,208.5C 91.6612,213.511 89.3278,218.178 86.5,222.5C 86.1667,222 85.8333,221.5 85.5,221C 87.0303,217.439 88.6969,213.939 90.5,210.5C 87.7051,210.062 85.3717,209.062 83.5,207.5 Z"/></g>
<g><path style="opacity:1" fill="#dbdbdb" d="M 188.5,207.5 C 191.247,207.187 193.914,207.52 196.5,208.5C 194.604,209.466 192.604,209.799 190.5,209.5C 190.5,210.833 190.5,212.167 190.5,213.5C 194.805,213.842 196.305,216.176 195,220.5C 192.686,222.96 190.186,223.46 187.5,222C 191.943,221.916 193.61,219.916 192.5,216C 191.207,215.51 189.873,215.343 188.5,215.5C 188.5,212.833 188.5,210.167 188.5,207.5 Z"/></g>
<g><path style="opacity:1" fill="#ddba53" d="M 142.5,219.5 C 144.308,219.491 145.975,219.991 147.5,221C 144.991,222.421 142.657,224.088 140.5,226C 148.938,227.197 150.605,231.197 145.5,238C 134.819,238.837 131.986,234.337 137,224.5C 138.73,222.598 140.563,220.931 142.5,219.5 Z"/></g>
<g><path style="opacity:1" fill="#0d0a04" d="M 140.5,229.5 C 141.496,229.414 142.329,229.748 143,230.5C 143.494,232.134 143.66,233.801 143.5,235.5C 142.167,235.5 140.833,235.5 139.5,235.5C 139.325,233.379 139.659,231.379 140.5,229.5 Z"/></g>
</svg>
