<?xml version="1.0" encoding="UTF-8"?>
<!DOCTYPE svg PUBLIC "-//W3C//DTD SVG 1.1//EN" "http://www.w3.org/Graphics/SVG/1.1/DTD/svg11.dtd">
<svg xmlns="http://www.w3.org/2000/svg" version="1.1" width="430px" height="358px" style="shape-rendering:geometricPrecision; text-rendering:geometricPrecision; image-rendering:optimizeQuality; fill-rule:evenodd; clip-rule:evenodd" xmlns:xlink="http://www.w3.org/1999/xlink">
<g><path style="opacity:0.729" fill="#8364a9" d="M 183.5,-0.5 C 185.167,-0.5 186.833,-0.5 188.5,-0.5C 188.5,0.5 188.5,1.5 188.5,2.5C 185.735,2.79762 183.235,3.79762 181,5.5C 180.13,4.8921 179.63,4.05877 179.5,3C 180.686,1.58786 182.019,0.421196 183.5,-0.5 Z"/></g>
<g><path style="opacity:0.7" fill="#8364ab" d="M 195.5,-0.5 C 197.167,-0.5 198.833,-0.5 200.5,-0.5C 202.1,0.644443 203.767,1.81111 205.5,3C 204.953,3.92458 204.287,4.75792 203.5,5.5C 201.021,3.92392 198.354,2.92392 195.5,2.5C 195.5,1.5 195.5,0.5 195.5,-0.5 Z"/></g>
<g><path style="opacity:0.972" fill="#455b64" d="M 296.5,140.5 C 296.83,157.675 296.497,174.675 295.5,191.5C 292.657,186.481 289.324,181.814 285.5,177.5C 286.494,167.347 286.828,157.014 286.5,146.5C 290.849,137.459 292.182,128.126 290.5,118.5C 289.962,111.347 288.628,104.347 286.5,97.5C 286.667,69.8313 286.5,42.1647 286,14.5C 284.28,8.21444 280.114,5.21444 273.5,5.5C 243.777,10.9141 214.111,16.7475 184.5,23C 181.749,23.1242 180.082,23.9575 179.5,25.5C 176.8,27.2344 174.8,29.5677 173.5,32.5C 172.124,32.7475 171.29,34.0808 171,36.5C 170.5,76.4986 170.333,116.499 170.5,156.5C 170.167,156.5 169.833,156.5 169.5,156.5C 169.825,148.981 169.492,141.648 168.5,134.5C 169.686,132.208 169.686,129.874 168.5,127.5C 168.259,118.342 168.592,109.008 169.5,99.5C 169.044,95.3224 168.377,91.3224 167.5,87.5C 168.15,70.5086 168.65,53.5086 169,36.5C 169.983,28.6701 174.15,23.5034 181.5,21C 192.14,18.6387 202.807,16.4721 213.5,14.5C 215.099,14.7678 216.432,14.4345 217.5,13.5C 236.528,9.1278 255.694,5.46114 275,2.5C 283.437,2.38509 290.104,5.71843 295,12.5C 296.319,43.7477 296.985,75.0811 297,106.5C 298.756,108.059 298.756,109.726 297,111.5C 296.5,121.161 296.334,130.828 296.5,140.5 Z"/></g>
<g><path style="opacity:0.662" fill="#7e5fa5" d="M 217.5,13.5 C 216.432,14.4345 215.099,14.7678 213.5,14.5C 212.19,12.8523 210.857,11.1856 209.5,9.5C 209.833,8.5 210.5,7.83333 211.5,7.5C 213.854,9.1878 215.854,11.1878 217.5,13.5 Z"/></g>
<g><path style="opacity:1" fill="#f0f0f0" d="M 277.5,7.5 C 276.448,7.35055 275.448,7.51722 274.5,8C 276.813,8.64092 278.48,9.97425 279.5,12C 276.552,23.7346 270.885,33.9013 262.5,42.5C 257.338,43.731 252.004,44.731 246.5,45.5C 239.133,41.6561 231.3,39.3227 223,38.5C 220.075,38.5229 217.241,39.0229 214.5,40C 210.139,42.5117 205.806,45.0117 201.5,47.5C 192.123,51.8741 186.29,59.2074 184,69.5C 182.499,86.1578 184.999,102.158 191.5,117.5C 179.052,129.049 176.052,142.882 182.5,159C 185.36,163.352 188.693,167.186 192.5,170.5C 191.345,173.475 189.678,176.142 187.5,178.5C 182.477,172.133 177.81,165.466 173.5,158.5C 173.5,116.5 173.5,74.5 173.5,32.5C 174.8,29.5677 176.8,27.2344 179.5,25.5C 186.387,24.4893 193.221,23.1559 200,21.5C 200.945,21.9054 201.612,22.572 202,23.5C 202.241,26.2889 202.908,28.9556 204,31.5C 204.725,32.0585 205.558,32.3918 206.5,32.5C 218.49,30.2687 230.49,28.1021 242.5,26C 243.667,24.8333 244.833,23.6667 246,22.5C 246.356,18.8539 247.189,15.3539 248.5,12C 257.306,10.0389 266.139,8.20552 275,6.5C 276.07,6.52804 276.903,6.86137 277.5,7.5 Z"/></g>
<g><path style="opacity:1" fill="#f7f8f8" d="M 277.5,7.5 C 280.091,8.25429 281.924,9.92096 283,12.5C 283.5,38.4979 283.667,64.4979 283.5,90.5C 278.511,80.5237 272.511,71.1904 265.5,62.5C 271.728,59.0198 273.895,53.6864 272,46.5C 269.592,43.3799 266.426,42.0466 262.5,42.5C 270.885,33.9013 276.552,23.7346 279.5,12C 278.48,9.97425 276.813,8.64092 274.5,8C 275.448,7.51722 276.448,7.35055 277.5,7.5 Z"/></g>
<g><path style="opacity:0.69" fill="#8263a9" d="M 172.5,8.5 C 173.995,8.41483 174.995,9.08149 175.5,10.5C 174.233,14.1423 171.9,16.4757 168.5,17.5C 169.538,14.419 170.872,11.419 172.5,8.5 Z"/></g>
<g><path style="opacity:1" fill="#29363c" d="M 286.5,97.5 C 285.264,95.351 284.264,93.0177 283.5,90.5C 283.667,64.4979 283.5,38.4979 283,12.5C 281.924,9.92096 280.091,8.25429 277.5,7.5C 276.903,6.86137 276.07,6.52804 275,6.5C 266.139,8.20552 257.306,10.0389 248.5,12C 247.189,15.3539 246.356,18.8539 246,22.5C 244.833,23.6667 243.667,24.8333 242.5,26C 230.49,28.1021 218.49,30.2687 206.5,32.5C 205.558,32.3918 204.725,32.0585 204,31.5C 202.908,28.9556 202.241,26.2889 202,23.5C 201.612,22.572 200.945,21.9054 200,21.5C 193.221,23.1559 186.387,24.4893 179.5,25.5C 180.082,23.9575 181.749,23.1242 184.5,23C 214.111,16.7475 243.777,10.9141 273.5,5.5C 280.114,5.21444 284.28,8.21444 286,14.5C 286.5,42.1647 286.667,69.8313 286.5,97.5 Z"/></g>
<g><path style="opacity:1" fill="#81888b" d="M 261.5,16.5 C 266.236,16.8853 266.569,18.2186 262.5,20.5C 260.358,19.5629 260.024,18.2296 261.5,16.5 Z"/></g>
<g><path style="opacity:1" fill="#545d62" d="M 270.5,16.5 C 271.404,17.209 271.737,18.209 271.5,19.5C 266.725,19.3299 266.392,18.3299 270.5,16.5 Z"/></g>
<g><path style="opacity:1" fill="#435861" d="M 229.5,19.5 C 230.833,19.5 232.167,19.5 233.5,19.5C 233.5,20.5 233.5,21.5 233.5,22.5C 227.241,23.9814 220.908,24.9814 214.5,25.5C 214.5,24.5 214.5,23.5 214.5,22.5C 219.727,22.0217 224.727,21.0217 229.5,19.5 Z"/></g>
<g><path style="opacity:0.764" fill="#8061a8" d="M 164.5,24.5 C 165.978,24.238 167.311,24.5713 168.5,25.5C 167.607,28.8144 166.274,31.8144 164.5,34.5C 163.692,34.1924 163.025,33.6924 162.5,33C 163.713,30.3135 164.38,27.4802 164.5,24.5 Z"/></g>
<g><path style="opacity:1" fill="#3d4a50" d="M 173.5,32.5 C 173.5,74.5 173.5,116.5 173.5,158.5C 172.5,157.833 171.5,157.167 170.5,156.5C 170.333,116.499 170.5,76.4986 171,36.5C 171.29,34.0808 172.124,32.7475 173.5,32.5 Z"/></g>
<g><path style="opacity:1" fill="#ad70af" d="M 246.5,45.5 C 250.809,48.8024 255.143,52.1357 259.5,55.5C 259.5,56.1667 259.833,56.5 260.5,56.5C 262.196,58.5248 263.863,60.5248 265.5,62.5C 272.511,71.1904 278.511,80.5237 283.5,90.5C 284.264,93.0177 285.264,95.351 286.5,97.5C 288.628,104.347 289.962,111.347 290.5,118.5C 290.799,120.604 290.466,122.604 289.5,124.5C 285.299,127.1 280.966,129.434 276.5,131.5C 273.381,103.427 261.381,79.9273 240.5,61C 229.096,51.1454 216.096,46.6454 201.5,47.5C 205.806,45.0117 210.139,42.5117 214.5,40C 217.241,39.0229 220.075,38.5229 223,38.5C 231.3,39.3227 239.133,41.6561 246.5,45.5 Z"/></g>
<g><path style="opacity:0.759" fill="#7d5fa7" d="M 160.5,41.5 C 161.978,41.238 163.311,41.5713 164.5,42.5C 163.833,45.1667 163.167,47.8333 162.5,50.5C 161.675,51.3857 160.675,51.719 159.5,51.5C 160.051,48.1933 160.384,44.8599 160.5,41.5 Z"/></g>
<g><path style="opacity:1" fill="#dcdcdd" d="M 262.5,42.5 C 266.426,42.0466 269.592,43.3799 272,46.5C 273.895,53.6864 271.728,59.0198 265.5,62.5C 263.863,60.5248 262.196,58.5248 260.5,56.5C 262.527,56.6621 264.527,56.4955 266.5,56C 265.751,54.2663 265.251,52.433 265,50.5C 265.266,53.9008 263.766,55.5674 260.5,55.5C 260.167,48.8333 259.833,48.8333 259.5,55.5C 255.143,52.1357 250.809,48.8024 246.5,45.5C 252.004,44.731 257.338,43.731 262.5,42.5 Z"/></g>
<g><path style="opacity:1" fill="#c398c5" d="M 201.5,47.5 C 216.096,46.6454 229.096,51.1454 240.5,61C 261.381,79.9273 273.381,103.427 276.5,131.5C 276.645,140.277 274.811,148.61 271,156.5C 269.833,157.667 268.667,158.833 267.5,160C 267.728,160.399 268.062,160.565 268.5,160.5C 268.158,161.338 267.492,161.672 266.5,161.5C 263.575,161.54 260.909,160.707 258.5,159C 259.056,158.617 259.389,158.117 259.5,157.5C 259.833,156.833 260.167,156.167 260.5,155.5C 263.726,154.123 264.059,152.457 261.5,150.5C 264.238,151.035 266.072,150.035 267,147.5C 268.23,140.555 268.73,133.555 268.5,126.5C 268.324,123.273 267.657,120.273 266.5,117.5C 265.507,112.687 264.007,108.02 262,103.5C 261.617,104.056 261.117,104.389 260.5,104.5C 260.717,101.579 260.051,98.9128 258.5,96.5C 258.017,94.1299 256.851,93.4632 255,94.5C 252.825,85.4777 247.992,78.1444 240.5,72.5C 239.833,71.1667 238.833,70.1667 237.5,69.5C 229.67,61.084 220.003,56.084 208.5,54.5C 206.102,54.2594 204.102,54.9261 202.5,56.5C 200.139,57.4348 197.972,58.7682 196,60.5C 193.264,65.2102 191.431,70.2102 190.5,75.5C 190.38,104.777 201.38,129.277 223.5,149C 228.162,152.666 233.162,155.833 238.5,158.5C 236.513,160.327 234.179,161.327 231.5,161.5C 226.522,159.009 221.855,156.009 217.5,152.5C 215.5,149.833 213.167,147.5 210.5,145.5C 209.272,144.694 208.272,143.694 207.5,142.5C 207.5,141.833 207.167,141.5 206.5,141.5C 205.52,137.674 204.687,137.674 204,141.5C 203.809,139.292 203.309,137.292 202.5,135.5C 202.5,134.833 202.167,134.5 201.5,134.5C 199.955,132.013 198.288,129.68 196.5,127.5C 196.104,124.279 194.771,121.612 192.5,119.5C 192.672,118.508 192.338,117.842 191.5,117.5C 184.999,102.158 182.499,86.1578 184,69.5C 186.29,59.2074 192.123,51.8741 201.5,47.5 Z"/></g>
<g><path style="opacity:1" fill="#757c80" d="M 260.5,56.5 C 259.833,56.5 259.5,56.1667 259.5,55.5C 259.833,48.8333 260.167,48.8333 260.5,55.5C 263.766,55.5674 265.266,53.9008 265,50.5C 265.251,52.433 265.751,54.2663 266.5,56C 264.527,56.4955 262.527,56.6621 260.5,56.5 Z"/></g>
<g><path style="opacity:1" fill="#a686a8" d="M 208.5,54.5 C 203.76,72.3168 205.76,89.3168 214.5,105.5C 214.263,106.791 214.596,107.791 215.5,108.5C 222.743,124.247 233.743,136.747 248.5,146C 252.624,148.207 256.957,149.707 261.5,150.5C 264.059,152.457 263.726,154.123 260.5,155.5C 252.081,156.084 244.414,153.917 237.5,149C 210.845,128.855 197.678,102.022 198,68.5C 198.667,64.1696 200.167,60.1696 202.5,56.5C 204.102,54.9261 206.102,54.2594 208.5,54.5 Z"/></g>
<g><path style="opacity:1" fill="#825484" d="M 202.5,56.5 C 200.167,60.1696 198.667,64.1696 198,68.5C 197.678,102.022 210.845,128.855 237.5,149C 244.414,153.917 252.081,156.084 260.5,155.5C 260.167,156.167 259.833,156.833 259.5,157.5C 248.296,159.369 237.963,157.203 228.5,151C 204.55,131.601 191.884,106.435 190.5,75.5C 191.431,70.2102 193.264,65.2102 196,60.5C 197.972,58.7682 200.139,57.4348 202.5,56.5 Z"/></g>
<g><path style="opacity:0.767" fill="#8264a9" d="M 158.5,58.5 C 159.496,58.4142 160.329,58.7476 161,59.5C 161.498,62.4816 161.665,65.4816 161.5,68.5C 160.167,68.5 158.833,68.5 157.5,68.5C 157.833,65.1667 158.167,61.8333 158.5,58.5 Z"/></g>
<g><path style="opacity:1" fill="#f3f2f3" d="M 208.5,54.5 C 220.003,56.084 229.67,61.084 237.5,69.5C 227.933,79.524 223.267,91.524 223.5,105.5C 220.5,105.5 217.5,105.5 214.5,105.5C 205.76,89.3168 203.76,72.3168 208.5,54.5 Z"/></g>
<g><path style="opacity:0.782" fill="#805fa7" d="M 338.5,67.5 C 341.271,67.4207 343.937,67.9207 346.5,69C 347.731,70.1827 347.731,71.3493 346.5,72.5C 343.904,71.5178 341.238,70.8511 338.5,70.5C 338.5,69.5 338.5,68.5 338.5,67.5 Z"/></g>
<g><path style="opacity:0.744" fill="#7e5fa7" d="M 328.5,68.5 C 329.5,68.5 330.5,68.5 331.5,68.5C 331.719,69.675 331.386,70.675 330.5,71.5C 328.201,72.6351 326.034,73.9684 324,75.5C 323.13,74.8921 322.63,74.0588 322.5,73C 324.358,71.2453 326.358,69.7453 328.5,68.5 Z"/></g>
<g><path style="opacity:1" fill="#f4f4f4" d="M 240.5,72.5 C 247.992,78.1444 252.825,85.4777 255,94.5C 256.851,93.4632 258.017,94.1299 258.5,96.5C 256.473,96.3379 254.473,96.5045 252.5,97C 251.978,97.5613 251.645,98.228 251.5,99C 252.434,101.591 253.767,103.924 255.5,106C 255.054,107.726 254.221,109.226 253,110.5C 251.488,115.656 253.154,117.323 258,115.5C 258.407,111.715 259.241,108.048 260.5,104.5C 261.117,104.389 261.617,104.056 262,103.5C 264.007,108.02 265.507,112.687 266.5,117.5C 262.451,124.84 256.118,128.507 247.5,128.5C 232.71,125.465 225.376,116.298 225.5,101C 226.192,89.1108 231.192,79.6108 240.5,72.5 Z"/></g>
<g><path style="opacity:0.769" fill="#8768ac" d="M 353.5,74.5 C 356.315,75.1264 358.815,76.4598 361,78.5C 361.699,80.0738 361.365,81.4071 360,82.5C 358.292,80.4565 356.292,78.7899 354,77.5C 353.517,76.552 353.351,75.552 353.5,74.5 Z"/></g>
<g><path style="opacity:0.765" fill="#7f60a8" d="M 157.5,76.5 C 158.5,76.5 159.5,76.5 160.5,76.5C 160.167,79.8333 159.833,83.1667 159.5,86.5C 158.5,86.5 157.5,86.5 156.5,86.5C 156.342,83.0977 156.676,79.7644 157.5,76.5 Z"/></g>
<g><path style="opacity:0.763" fill="#7f5fa9" d="M 315.5,78.5 C 316.756,78.4614 317.756,78.9614 318.5,80C 316.707,82.7953 314.54,85.2953 312,87.5C 310.635,86.4071 310.301,85.0738 311,83.5C 312.707,81.9625 314.207,80.2959 315.5,78.5 Z"/></g>
<g><path style="opacity:0.717" fill="#7e60a7" d="M 67.5,80.5 C 71.2196,80.2961 74.553,81.2961 77.5,83.5C 77.1131,84.7199 76.2798,85.3865 75,85.5C 72.5667,84.5212 70.0667,83.8545 67.5,83.5C 67.5,82.5 67.5,81.5 67.5,80.5 Z"/></g>
<g><path style="opacity:0.758" fill="#7f5fa9" d="M 59.5,80.5 C 60.782,81.7082 60.782,83.0416 59.5,84.5C 57.5,85.5 55.5,86.5 53.5,87.5C 51.6465,86.8244 51.3131,85.8244 52.5,84.5C 54.7654,82.8726 57.0987,81.5392 59.5,80.5 Z"/></g>
<g><path style="opacity:1" fill="#787878" d="M 244.5,82.5 C 246.176,83.1834 246.843,84.5168 246.5,86.5C 244.833,86.5 243.167,86.5 241.5,86.5C 241.5,85.5 241.5,84.5 241.5,83.5C 242.791,83.7373 243.791,83.404 244.5,82.5 Z"/></g>
<g><path style="opacity:0.755" fill="#7f61a9" d="M 365.5,86.5 C 367.017,86.5106 368.184,87.1772 369,88.5C 369.914,90.6641 371.081,92.6641 372.5,94.5C 371.758,95.2868 370.925,95.9535 370,96.5C 367.971,93.9708 366.138,91.3041 364.5,88.5C 364.863,87.8165 365.196,87.1499 365.5,86.5 Z"/></g>
<g><path style="opacity:0.727" fill="#8060a8" d="M 83.5,87.5 C 85.907,88.7945 88.0737,90.4611 90,92.5C 90.6987,94.0738 90.3654,95.4071 89,96.5C 86.8116,94.3116 84.6449,92.1449 82.5,90C 82.7432,89.0979 83.0766,88.2646 83.5,87.5 Z"/></g>
<g><path style="opacity:1" fill="#565656" d="M 240.5,88.5 C 242.199,88.3398 243.866,88.5065 245.5,89C 246.022,89.5613 246.355,90.228 246.5,91C 244.541,93.1364 243.207,95.6364 242.5,98.5C 243.758,100.687 244.758,103.02 245.5,105.5C 244.62,108.517 242.786,109.184 240,107.5C 239.236,103.209 238.069,99.0423 236.5,95C 237.205,92.4582 238.539,90.2916 240.5,88.5 Z"/></g>
<g><path style="opacity:0.953" fill="#8f7cb6" d="M 167.5,87.5 C 168.377,91.3224 169.044,95.3224 169.5,99.5C 168.592,109.008 168.259,118.342 168.5,127.5C 165.535,122.009 160.869,119.009 154.5,118.5C 154.993,116.194 155.326,113.861 155.5,111.5C 157.124,111.36 158.29,112.027 159,113.5C 161.944,104.835 164.777,96.1683 167.5,87.5 Z"/></g>
<g><path style="opacity:1" fill="#5f5f5f" d="M 250.5,90.5 C 251.5,90.5 252.5,90.5 253.5,90.5C 253.5,91.8333 253.5,93.1667 253.5,94.5C 252.5,94.5 251.5,94.5 250.5,94.5C 250.5,93.1667 250.5,91.8333 250.5,90.5 Z"/></g>
<g><path style="opacity:0.713" fill="#7d60a6" d="M 44.5,91.5 C 46.1033,91.3118 47.4366,91.8118 48.5,93C 46.6596,95.6687 44.6596,98.1687 42.5,100.5C 41.5,100.167 40.8333,99.5 40.5,98.5C 42.11,96.2746 43.4434,93.9413 44.5,91.5 Z"/></g>
<g><path style="opacity:0.686" fill="#7f62a7" d="M 304.5,91.5 C 306.252,91.4176 307.252,92.2509 307.5,94C 306.211,96.7412 304.545,99.2412 302.5,101.5C 301.5,101.167 300.833,100.5 300.5,99.5C 302.297,97.0447 303.63,94.378 304.5,91.5 Z"/></g>
<g><path style="opacity:0.792" fill="#7e61a6" d="M 156.5,93.5 C 157.496,93.4142 158.329,93.7476 159,94.5C 159.301,97.5071 159.135,100.507 158.5,103.5C 157.5,103.5 156.5,103.5 155.5,103.5C 155.46,100.119 155.793,96.7861 156.5,93.5 Z"/></g>
<g><path style="opacity:1" fill="#525252" d="M 258.5,96.5 C 260.051,98.9128 260.717,101.579 260.5,104.5C 259.241,108.048 258.407,111.715 258,115.5C 253.154,117.323 251.488,115.656 253,110.5C 254.221,109.226 255.054,107.726 255.5,106C 253.767,103.924 252.434,101.591 251.5,99C 251.645,98.228 251.978,97.5613 252.5,97C 254.473,96.5045 256.473,96.3379 258.5,96.5 Z"/></g>
<g><path style="opacity:0.734" fill="#7f5fa6" d="M 94.5,100.5 C 95.552,100.351 96.552,100.517 97.5,101C 98.9284,103.185 100.595,105.185 102.5,107C 101.667,107.833 100.833,108.667 100,109.5C 97.4742,106.833 95.6409,103.833 94.5,100.5 Z"/></g>
<g><path style="opacity:0.749" fill="#7f61a5" d="M 374.5,101.5 C 377.71,103.918 379.376,107.252 379.5,111.5C 378.325,111.719 377.325,111.386 376.5,110.5C 374.791,107.522 374.124,104.522 374.5,101.5 Z"/></g>
<g><path style="opacity:0.732" fill="#7e5fa8" d="M 35.5,106.5 C 37.1033,106.312 38.4366,106.812 39.5,108C 37.8726,110.754 36.3726,113.588 35,116.5C 34.0754,115.953 33.2421,115.287 32.5,114.5C 33.9,111.965 34.9,109.298 35.5,106.5 Z"/></g>
<g><path style="opacity:1" fill="#dddede" d="M 237.5,69.5 C 238.833,70.1667 239.833,71.1667 240.5,72.5C 231.192,79.6108 226.192,89.1108 225.5,101C 225.376,116.298 232.71,125.465 247.5,128.5C 256.118,128.507 262.451,124.84 266.5,117.5C 267.657,120.273 268.324,123.273 268.5,126.5C 267.732,125.737 267.232,124.737 267,123.5C 264.633,126.14 261.8,128.307 258.5,130C 245.617,134.653 234.784,131.82 226,121.5C 224.597,116.617 223.764,111.617 223.5,106.5C 220.302,105.964 217.635,106.631 215.5,108.5C 214.596,107.791 214.263,106.791 214.5,105.5C 217.5,105.5 220.5,105.5 223.5,105.5C 223.267,91.524 227.933,79.524 237.5,69.5 Z"/></g>
<g><path style="opacity:0.791" fill="#8163a9" d="M 105.5,113.5 C 108.446,115.457 110.779,118.124 112.5,121.5C 111.758,122.287 110.925,122.953 110,123.5C 107.971,120.971 106.138,118.304 104.5,115.5C 104.863,114.817 105.196,114.15 105.5,113.5 Z"/></g>
<g><path style="opacity:0.983" fill="#3b4951" d="M 154.5,118.5 C 160.869,119.009 165.535,122.009 168.5,127.5C 169.686,129.874 169.686,132.208 168.5,134.5C 168.573,136.027 167.906,137.027 166.5,137.5C 166.509,135.692 166.009,134.025 165,132.5C 163.703,133.784 162.536,133.617 161.5,132C 162.624,131.751 163.624,131.251 164.5,130.5C 163.5,128.833 162.167,127.5 160.5,126.5C 158.678,128.794 156.844,131.128 155,133.5C 155.263,134.951 155.096,136.284 154.5,137.5C 153.808,136.975 153.308,136.308 153,135.5C 152,136.833 151,136.833 150,135.5C 148.383,136.851 147.216,138.518 146.5,140.5C 144.74,137.074 142.574,136.741 140,139.5C 139.418,144.317 141.584,146.65 146.5,146.5C 147.039,150.416 145.706,153.416 142.5,155.5C 140.833,155.5 139.167,155.5 137.5,155.5C 137.817,151.298 137.483,147.298 136.5,143.5C 133.313,128.374 139.313,120.04 154.5,118.5 Z"/></g>
<g><path style="opacity:0.731" fill="#8364ad" d="M 381.5,117.5 C 382.497,117.47 383.164,117.97 383.5,119C 384.406,121.791 385.073,124.624 385.5,127.5C 383.876,127.64 382.71,126.973 382,125.5C 381.358,123.238 380.525,121.071 379.5,119C 380.416,118.722 381.082,118.222 381.5,117.5 Z"/></g>
<g><path style="opacity:1" fill="#f2f2f2" d="M 192.5,119.5 C 194.771,121.612 196.104,124.279 196.5,127.5C 195.4,128.605 194.733,129.938 194.5,131.5C 193.655,132.671 192.989,134.005 192.5,135.5C 192.5,136.5 192.5,137.5 192.5,138.5C 191.167,141.5 191.167,144.5 192.5,147.5C 192.307,151.248 193.307,154.582 195.5,157.5C 196.483,158.85 197.816,159.85 199.5,160.5C 198.057,163.077 196.39,165.41 194.5,167.5C 188.292,164.443 184.459,159.443 183,152.5C 179.603,139.463 182.77,128.463 192.5,119.5 Z"/></g>
<g><path style="opacity:0.765" fill="#8062a9" d="M 29.5,122.5 C 30.9953,122.415 31.9953,123.081 32.5,124.5C 31.7216,127.539 30.3883,130.206 28.5,132.5C 27.5,132.167 26.8333,131.5 26.5,130.5C 27.5084,127.805 28.5084,125.138 29.5,122.5 Z"/></g>
<g><path style="opacity:1" fill="#805282" d="M 290.5,118.5 C 292.182,128.126 290.849,137.459 286.5,146.5C 285.11,147.899 284.11,149.566 283.5,151.5C 278.693,154.74 273.693,157.74 268.5,160.5C 268.062,160.565 267.728,160.399 267.5,160C 268.667,158.833 269.833,157.667 271,156.5C 274.811,148.61 276.645,140.277 276.5,131.5C 280.966,129.434 285.299,127.1 289.5,124.5C 290.466,122.604 290.799,120.604 290.5,118.5 Z"/></g>
<g><path style="opacity:0.743" fill="#8364a9" d="M 116.5,127.5 C 118.829,129.841 120.829,132.508 122.5,135.5C 121.758,136.287 120.925,136.953 120,137.5C 117.92,135.007 116.086,132.341 114.5,129.5C 115.243,128.818 115.909,128.151 116.5,127.5 Z"/></g>
<g><path style="opacity:1" fill="#f8f7f8" d="M 268.5,126.5 C 268.73,133.555 268.23,140.555 267,147.5C 266.072,150.035 264.238,151.035 261.5,150.5C 256.957,149.707 252.624,148.207 248.5,146C 233.743,136.747 222.743,124.247 215.5,108.5C 217.635,106.631 220.302,105.964 223.5,106.5C 223.764,111.617 224.597,116.617 226,121.5C 234.784,131.82 245.617,134.653 258.5,130C 261.8,128.307 264.633,126.14 267,123.5C 267.232,124.737 267.732,125.737 268.5,126.5 Z"/></g>
<g><path style="opacity:0.992" fill="#927fb9" d="M 136.5,143.5 C 137.483,147.298 137.817,151.298 137.5,155.5C 139.167,155.5 140.833,155.5 142.5,155.5C 142.5,155.833 142.5,156.167 142.5,156.5C 140.901,156.232 139.568,156.566 138.5,157.5C 135.495,157.253 132.995,158.253 131,160.5C 125.759,170.211 123.426,180.545 124,191.5C 127.352,194.049 130.519,193.716 133.5,190.5C 134.217,194.989 134.217,199.656 133.5,204.5C 132.834,215.487 132.501,226.487 132.5,237.5C 126.833,228.651 120.166,220.485 112.5,213C 107.365,209.188 102.032,208.688 96.5,211.5C 96.9923,207.71 96.159,207.044 94,209.5C 90.9315,216.707 88.2648,224.041 86,231.5C 83.9824,229.65 82.1491,227.65 80.5,225.5C 85.4687,217.098 88.3021,208.098 89,198.5C 84.2888,206.26 80.9554,214.593 79,223.5C 77.4851,221.323 75.9851,219.156 74.5,217C 79.3598,208.423 82.1931,199.256 83,189.5C 78.0137,197.482 74.6804,206.149 73,215.5C 71.5,213.167 70,210.833 68.5,208.5C 72.2525,199.499 74.0858,190.166 74,180.5C 70.0575,188.334 67.7242,196.668 67,205.5C 64.5431,198.684 62.5431,191.684 61,184.5C 59.9731,181.246 58.4731,178.246 56.5,175.5C 56.6861,185.742 59.3528,195.409 64.5,204.5C 59.0481,201.226 53.3815,197.559 47.5,193.5C 46.9525,181.055 47.7858,168.721 50,156.5C 55.0092,139.457 66.1759,132.291 83.5,135C 93.9651,139.232 104.632,142.898 115.5,146C 118.882,146.824 122.216,146.657 125.5,145.5C 124.164,143.625 124.664,142.292 127,141.5C 127.68,143.513 129.013,144.846 131,145.5C 132.8,144.68 134.634,144.014 136.5,143.5 Z"/></g>
<g><path style="opacity:1" fill="#707070" d="M 194.5,131.5 C 195.774,132.189 195.774,133.023 194.5,134C 195.448,134.483 196.448,134.649 197.5,134.5C 197.281,135.675 197.614,136.675 198.5,137.5C 199.176,136.398 199.842,135.398 200.5,134.5C 200.5,135.833 200.5,137.167 200.5,138.5C 199.167,138.5 197.833,138.5 196.5,138.5C 196.719,137.325 196.386,136.325 195.5,135.5C 194.473,136.791 193.473,136.791 192.5,135.5C 192.989,134.005 193.655,132.671 194.5,131.5 Z"/></g>
<g><path style="opacity:1" fill="#343334" d="M 196.5,127.5 C 198.288,129.68 199.955,132.013 201.5,134.5C 201.167,134.5 200.833,134.5 200.5,134.5C 199.842,135.398 199.176,136.398 198.5,137.5C 197.614,136.675 197.281,135.675 197.5,134.5C 196.448,134.649 195.448,134.483 194.5,134C 195.774,133.023 195.774,132.189 194.5,131.5C 194.733,129.938 195.4,128.605 196.5,127.5 Z"/></g>
<g><path style="opacity:0.992" fill="#9380ba" d="M 368.5,274.5 C 366.119,275.83 363.786,275.664 361.5,274C 357.908,271.079 355.075,267.579 353,263.5C 346.607,247.655 340.607,231.655 335,215.5C 333.698,211.726 331.531,208.559 328.5,206C 325.364,204.959 322.864,205.793 321,208.5C 316.306,216.578 311.139,224.244 305.5,231.5C 306.093,217.118 302.76,203.785 295.5,191.5C 296.497,174.675 296.83,157.675 296.5,140.5C 304.829,138.782 313.162,136.949 321.5,135C 344.931,132.963 361.098,142.796 370,164.5C 377.899,188.707 379.566,213.373 375,238.5C 373.152,250.57 370.986,262.57 368.5,274.5 Z"/></g>
<g><path style="opacity:0.769" fill="#7e60a8" d="M 385.5,134.5 C 386.5,134.5 387.5,134.5 388.5,134.5C 388.62,137.48 389.287,140.313 390.5,143C 389.437,144.188 388.103,144.688 386.5,144.5C 386.167,141.167 385.833,137.833 385.5,134.5 Z"/></g>
<g><path style="opacity:1" fill="#9380b3" d="M 168.5,134.5 C 169.492,141.648 169.825,148.981 169.5,156.5C 169.167,156.5 168.833,156.5 168.5,156.5C 165.609,155.597 162.609,155.264 159.5,155.5C 159.5,154.833 159.5,154.167 159.5,153.5C 162.127,152.908 164.794,152.575 167.5,152.5C 167.784,150.585 167.451,148.919 166.5,147.5C 166.5,144.167 166.5,140.833 166.5,137.5C 167.906,137.027 168.573,136.027 168.5,134.5 Z"/></g>
<g><path style="opacity:0.75" fill="#7e60a6" d="M 24.5,139.5 C 25.5,139.5 26.5,139.5 27.5,139.5C 27.2502,143.102 26.2502,146.435 24.5,149.5C 23.2801,149.113 22.6135,148.28 22.5,147C 23.2489,144.503 23.9155,142.003 24.5,139.5 Z"/></g>
<g><path style="opacity:1" fill="#cbcbcb" d="M 191.5,117.5 C 192.338,117.842 192.672,118.508 192.5,119.5C 182.77,128.463 179.603,139.463 183,152.5C 184.459,159.443 188.292,164.443 194.5,167.5C 194.068,168.71 193.401,169.71 192.5,170.5C 188.693,167.186 185.36,163.352 182.5,159C 176.052,142.882 179.052,129.049 191.5,117.5 Z"/></g>
<g><path style="opacity:1" fill="#252525" d="M 200.5,134.5 C 200.833,134.5 201.167,134.5 201.5,134.5C 202.167,134.5 202.5,134.833 202.5,135.5C 200.514,142.705 201.514,149.371 205.5,155.5C 205.137,156.183 204.804,156.85 204.5,157.5C 203.833,157.167 203.167,156.833 202.5,156.5C 201.395,152.878 200.395,149.211 199.5,145.5C 199.483,146.394 199.149,147.394 198.5,148.5C 195.653,146.202 195.987,144.869 199.5,144.5C 199.5,143.167 199.5,141.833 199.5,140.5C 197.473,140.662 195.473,140.495 193.5,140C 192.944,139.617 192.611,139.117 192.5,138.5C 192.5,137.5 192.5,136.5 192.5,135.5C 193.473,136.791 194.473,136.791 195.5,135.5C 196.386,136.325 196.719,137.325 196.5,138.5C 197.833,138.5 199.167,138.5 200.5,138.5C 200.5,137.167 200.5,135.833 200.5,134.5 Z"/></g>
<g><path style="opacity:1" fill="#3c3c3c" d="M 206.5,141.5 C 207.167,141.5 207.5,141.833 207.5,142.5C 207.631,143.376 207.298,144.043 206.5,144.5C 205.224,143.386 205.224,142.386 206.5,141.5 Z"/></g>
<g><path style="opacity:1" fill="#606060" d="M 192.5,138.5 C 192.611,139.117 192.944,139.617 193.5,140C 195.473,140.495 197.473,140.662 199.5,140.5C 199.5,141.833 199.5,143.167 199.5,144.5C 195.987,144.869 195.653,146.202 198.5,148.5C 198.013,149.473 197.513,150.473 197,151.5C 197.284,147.595 195.784,146.262 192.5,147.5C 191.167,144.5 191.167,141.5 192.5,138.5 Z"/></g>
<g><path style="opacity:1" fill="#aaa9aa" d="M 210.5,145.5 C 213.167,147.5 215.5,149.833 217.5,152.5C 217.092,153.643 216.425,154.643 215.5,155.5C 212.961,154.069 210.628,152.403 208.5,150.5C 209.11,149.609 209.443,148.609 209.5,147.5C 210.338,147.158 210.672,146.492 210.5,145.5 Z"/></g>
<g><path style="opacity:1" fill="#263238" d="M 286.5,146.5 C 286.828,157.014 286.494,167.347 285.5,177.5C 284.833,176.5 284.167,175.5 283.5,174.5C 283.5,166.833 283.5,159.167 283.5,151.5C 284.11,149.566 285.11,147.899 286.5,146.5 Z"/></g>
<g><path style="opacity:1" fill="#f3a4a6" d="M 166.5,137.5 C 166.5,140.833 166.5,144.167 166.5,147.5C 164.311,149.747 161.978,151.747 159.5,153.5C 159.5,154.167 159.5,154.833 159.5,155.5C 164.916,166.144 163.249,168.144 154.5,161.5C 151.696,163.138 149.029,164.971 146.5,167C 142.535,175.102 138.202,182.935 133.5,190.5C 130.519,193.716 127.352,194.049 124,191.5C 123.426,180.545 125.759,170.211 131,160.5C 132.995,158.253 135.495,157.253 138.5,157.5C 140.253,161.341 141.586,161.008 142.5,156.5C 142.5,156.167 142.5,155.833 142.5,155.5C 145.706,153.416 147.039,150.416 146.5,146.5C 141.584,146.65 139.418,144.317 140,139.5C 142.574,136.741 144.74,137.074 146.5,140.5C 147.216,138.518 148.383,136.851 150,135.5C 151,136.833 152,136.833 153,135.5C 153.308,136.308 153.808,136.975 154.5,137.5C 155.096,136.284 155.263,134.951 155,133.5C 156.844,131.128 158.678,128.794 160.5,126.5C 162.167,127.5 163.5,128.833 164.5,130.5C 163.624,131.251 162.624,131.751 161.5,132C 162.536,133.617 163.703,133.784 165,132.5C 166.009,134.025 166.509,135.692 166.5,137.5 Z"/></g>
<g><path style="opacity:1" fill="#474f5c" d="M 166.5,147.5 C 167.451,148.919 167.784,150.585 167.5,152.5C 164.794,152.575 162.127,152.908 159.5,153.5C 161.978,151.747 164.311,149.747 166.5,147.5 Z"/></g>
<g><path style="opacity:1" fill="#2b2b2b" d="M 209.5,147.5 C 209.443,148.609 209.11,149.609 208.5,150.5C 208.013,151.473 207.513,152.473 207,153.5C 206.333,151.5 206.333,149.5 207,147.5C 207.77,146.402 208.603,146.402 209.5,147.5 Z"/></g>
<g><path style="opacity:1" fill="#393939" d="M 198.5,148.5 C 199.124,148.917 199.457,149.584 199.5,150.5C 196.919,153.097 196.919,155.597 199.5,158C 198.181,158.195 196.847,158.028 195.5,157.5C 193.307,154.582 192.307,151.248 192.5,147.5C 195.784,146.262 197.284,147.595 197,151.5C 197.513,150.473 198.013,149.473 198.5,148.5 Z"/></g>
<g><path style="opacity:1" fill="#f4f4f6" d="M 283.5,151.5 C 283.5,159.167 283.5,166.833 283.5,174.5C 277.615,170.398 271.948,166.064 266.5,161.5C 267.492,161.672 268.158,161.338 268.5,160.5C 273.693,157.74 278.693,154.74 283.5,151.5 Z"/></g>
<g><path style="opacity:0.764" fill="#8366ab" d="M 389.5,151.5 C 390.75,151.577 391.583,152.244 392,153.5C 392.287,155.891 392.787,158.224 393.5,160.5C 392.311,161.429 390.978,161.762 389.5,161.5C 389.016,158.049 389.016,154.716 389.5,151.5 Z"/></g>
<g><path style="opacity:1" fill="#f4f3f3" d="M 159.5,155.5 C 162.609,155.264 165.609,155.597 168.5,156.5C 175.039,165.319 177.872,175.319 177,186.5C 177.949,188.093 179.115,189.426 180.5,190.5C 176.937,194.418 175.604,199.085 176.5,204.5C 162.193,211.164 147.859,211.164 133.5,204.5C 134.217,199.656 134.217,194.989 133.5,190.5C 138.202,182.935 142.535,175.102 146.5,167C 149.029,164.971 151.696,163.138 154.5,161.5C 163.249,168.144 164.916,166.144 159.5,155.5 Z"/></g>
<g><path style="opacity:0.703" fill="#8060a8" d="M 21.5,156.5 C 22.5,156.5 23.5,156.5 24.5,156.5C 23.7929,159.786 23.4595,163.119 23.5,166.5C 22.5,166.5 21.5,166.5 20.5,166.5C 20.2529,163.061 20.5863,159.728 21.5,156.5 Z"/></g>
<g><path style="opacity:1" fill="#ede7eb" d="M 142.5,156.5 C 141.586,161.008 140.253,161.341 138.5,157.5C 139.568,156.566 140.901,156.232 142.5,156.5 Z"/></g>
<g><path style="opacity:1" fill="#f5a7a7" d="M 168.5,156.5 C 168.833,156.5 169.167,156.5 169.5,156.5C 169.833,156.5 170.167,156.5 170.5,156.5C 171.5,157.167 172.5,157.833 173.5,158.5C 177.81,165.466 182.477,172.133 187.5,178.5C 185.194,182.483 182.861,186.483 180.5,190.5C 179.115,189.426 177.949,188.093 177,186.5C 177.872,175.319 175.039,165.319 168.5,156.5 Z"/></g>
<g><path style="opacity:1" fill="#cba5cc" d="M 190.5,75.5 C 191.884,106.435 204.55,131.601 228.5,151C 237.963,157.203 248.296,159.369 259.5,157.5C 259.389,158.117 259.056,158.617 258.5,159C 260.909,160.707 263.575,161.54 266.5,161.5C 271.948,166.064 277.615,170.398 283.5,174.5C 284.167,175.5 284.833,176.5 285.5,177.5C 289.324,181.814 292.657,186.481 295.5,191.5C 302.76,203.785 306.093,217.118 305.5,231.5C 305.454,240.996 302.121,248.996 295.5,255.5C 292.45,257.692 289.117,259.358 285.5,260.5C 287.246,257.337 288.746,254.004 290,250.5C 290.78,248.613 290.613,246.946 289.5,245.5C 289.5,240.167 289.5,234.833 289.5,229.5C 290.326,233.982 290.826,238.649 291,243.5C 292.951,214.241 282.118,191.074 258.5,174C 253.62,171.393 248.62,169.06 243.5,167C 241.613,166.22 239.946,166.387 238.5,167.5C 235.833,167.5 233.167,167.5 230.5,167.5C 231.952,166.698 233.618,166.198 235.5,166C 232.112,165.341 228.779,165.508 225.5,166.5C 227.5,164.833 229.5,163.167 231.5,161.5C 234.179,161.327 236.513,160.327 238.5,158.5C 233.162,155.833 228.162,152.666 223.5,149C 201.38,129.277 190.38,104.777 190.5,75.5 Z"/></g>
<g><path style="opacity:1" fill="#485c64" d="M 202.5,156.5 C 201.761,156.369 201.094,156.536 200.5,157C 200.693,158.645 200.86,160.479 201,162.5C 202.684,164.351 204.517,166.018 206.5,167.5C 196.76,184.641 187.26,201.975 178,219.5C 176.95,214.552 176.45,209.552 176.5,204.5C 175.604,199.085 176.937,194.418 180.5,190.5C 182.861,186.483 185.194,182.483 187.5,178.5C 189.678,176.142 191.345,173.475 192.5,170.5C 193.401,169.71 194.068,168.71 194.5,167.5C 196.39,165.41 198.057,163.077 199.5,160.5C 197.816,159.85 196.483,158.85 195.5,157.5C 196.847,158.028 198.181,158.195 199.5,158C 196.919,155.597 196.919,153.097 199.5,150.5C 199.457,149.584 199.124,148.917 198.5,148.5C 199.149,147.394 199.483,146.394 199.5,145.5C 200.395,149.211 201.395,152.878 202.5,156.5 Z"/></g>
<g><path style="opacity:1" fill="#37464e" d="M 202.5,156.5 C 203.167,156.833 203.833,157.167 204.5,157.5C 201.532,161.938 202.865,164.605 208.5,165.5C 210.397,165.272 211.73,164.272 212.5,162.5C 213.386,163.325 213.719,164.325 213.5,165.5C 211.833,168.833 210.167,172.167 208.5,175.5C 199.928,190.973 191.595,206.64 183.5,222.5C 181.326,225.515 179.659,228.849 178.5,232.5C 177.507,241.318 177.173,250.318 177.5,259.5C 176.733,269.815 176.399,280.148 176.5,290.5C 175.375,291.348 175.375,292.348 176.5,293.5C 175.662,293.842 175.328,294.508 175.5,295.5C 171.548,296.272 167.548,296.605 163.5,296.5C 163.5,295.833 163.167,295.5 162.5,295.5C 161.992,291.264 160.992,287.264 159.5,283.5C 159.5,282.833 159.5,282.167 159.5,281.5C 159.768,279.901 159.434,278.568 158.5,277.5C 158.296,274.482 157.963,271.482 157.5,268.5C 157.5,266.5 157.5,264.5 157.5,262.5C 157.747,255.112 157.247,247.779 156,240.5C 154.509,246.458 153.343,252.458 152.5,258.5C 152.5,259.833 152.5,261.167 152.5,262.5C 151.596,263.209 151.263,264.209 151.5,265.5C 150.549,266.919 150.216,268.585 150.5,270.5C 147.94,280.194 145.273,289.86 142.5,299.5C 138.246,301.132 134.246,300.799 130.5,298.5C 129.787,288.516 129.453,278.516 129.5,268.5C 131.942,258.335 132.942,248.002 132.5,237.5C 132.501,226.487 132.834,215.487 133.5,204.5C 147.859,211.164 162.193,211.164 176.5,204.5C 176.45,209.552 176.95,214.552 178,219.5C 187.26,201.975 196.76,184.641 206.5,167.5C 204.517,166.018 202.684,164.351 201,162.5C 200.86,160.479 200.693,158.645 200.5,157C 201.094,156.536 201.761,156.369 202.5,156.5 Z"/></g>
<g><path style="opacity:1" fill="#f9f9fa" d="M 230.5,167.5 C 233.167,167.5 235.833,167.5 238.5,167.5C 260.413,174.239 275.913,188.239 285,209.5C 287.714,215.904 289.214,222.571 289.5,229.5C 289.5,234.833 289.5,240.167 289.5,245.5C 288.373,252.587 285.04,258.42 279.5,263C 273.139,265.263 267.306,268.429 262,272.5C 260.013,279.001 258.68,285.668 258,292.5C 253.667,289.833 249.333,287.167 245,284.5C 244.089,275.174 243.756,265.84 244,256.5C 245.458,254.04 247.291,251.873 249.5,250C 271.261,243.131 277.094,229.298 267,208.5C 259.318,194.965 247.818,189.298 232.5,191.5C 230.626,191.61 229.126,190.944 228,189.5C 225.629,183.262 223.129,177.095 220.5,171C 223.396,168.608 226.73,167.441 230.5,167.5 Z"/></g>
<g><path style="opacity:1" fill="#f3a5a6" d="M 213.5,165.5 C 215.346,165.222 216.68,165.889 217.5,167.5C 216.527,170.137 215.194,172.47 213.5,174.5C 211.958,175.301 210.292,175.634 208.5,175.5C 210.167,172.167 211.833,168.833 213.5,165.5 Z"/></g>
<g><path style="opacity:0.727" fill="#7e61aa" d="M 391.5,169.5 C 392.5,169.5 393.5,169.5 394.5,169.5C 394.616,172.86 394.949,176.193 395.5,179.5C 393.876,179.64 392.71,178.973 392,177.5C 391.503,174.854 391.336,172.187 391.5,169.5 Z"/></g>
<g><path style="opacity:0.695" fill="#7e60a7" d="M 19.5,174.5 C 20.5,174.5 21.5,174.5 22.5,174.5C 22.5,177.833 22.5,181.167 22.5,184.5C 21.5,184.5 20.5,184.5 19.5,184.5C 19.5,181.167 19.5,177.833 19.5,174.5 Z"/></g>
<g><path style="opacity:1" fill="#f2f1f2" d="M 221.5,177.5 C 223.091,182.904 225.424,187.904 228.5,192.5C 228.013,193.473 227.513,194.473 227,195.5C 225.989,194.663 224.822,194.33 223.5,194.5C 223.357,196.262 223.691,197.929 224.5,199.5C 221.885,201.637 221.885,203.637 224.5,205.5C 225.024,207.306 225.691,208.972 226.5,210.5C 226.56,211.043 226.893,211.376 227.5,211.5C 229.547,209.985 231.881,209.151 234.5,209C 235.581,207.289 235.248,205.789 233.5,204.5C 233.833,203.833 234.167,203.167 234.5,202.5C 235.72,200.716 235.72,199.05 234.5,197.5C 233.71,196.599 232.71,195.932 231.5,195.5C 231.5,195.167 231.5,194.833 231.5,194.5C 232.777,193.102 234.443,192.436 236.5,192.5C 239.043,193.371 241.376,193.705 243.5,193.5C 240.779,194.696 239.613,196.696 240,199.5C 243.269,200.316 246.436,201.316 249.5,202.5C 249.643,200.738 249.309,199.071 248.5,197.5C 249.325,196.614 250.325,196.281 251.5,196.5C 252.552,196.351 253.552,196.517 254.5,197C 256.763,198.617 258.763,200.45 260.5,202.5C 259.527,216.147 252.36,224.147 239,226.5C 225.742,223.909 217.742,215.909 215,202.5C 213.55,194.336 214.883,186.669 219,179.5C 219.708,178.619 220.542,177.953 221.5,177.5 Z"/></g>
<g><path style="opacity:1" fill="#b57fb7" d="M 238.5,167.5 C 239.946,166.387 241.613,166.22 243.5,167C 248.62,169.06 253.62,171.393 258.5,174C 282.118,191.074 292.951,214.241 291,243.5C 290.826,238.649 290.326,233.982 289.5,229.5C 289.214,222.571 287.714,215.904 285,209.5C 275.913,188.239 260.413,174.239 238.5,167.5 Z"/></g>
<g><path style="opacity:0.755" fill="#7e60a8" d="M 392.5,186.5 C 393.822,186.33 394.989,186.663 396,187.5C 396.498,190.482 396.665,193.482 396.5,196.5C 395.5,196.5 394.5,196.5 393.5,196.5C 393.54,193.119 393.207,189.786 392.5,186.5 Z"/></g>
<g><path style="opacity:0.67" fill="#7e60a7" d="M 19.5,191.5 C 20.5,191.5 21.5,191.5 22.5,191.5C 22.5,194.833 22.5,198.167 22.5,201.5C 21.5,201.5 20.5,201.5 19.5,201.5C 19.5,198.167 19.5,194.833 19.5,191.5 Z"/></g>
<g><path style="opacity:1" fill="#121112" d="M 243.5,193.5 C 245.39,193.297 246.89,193.963 248,195.5C 249.579,194.2 250.745,194.534 251.5,196.5C 250.325,196.281 249.325,196.614 248.5,197.5C 249.309,199.071 249.643,200.738 249.5,202.5C 246.436,201.316 243.269,200.316 240,199.5C 239.613,196.696 240.779,194.696 243.5,193.5 Z"/></g>
<g><path style="opacity:1" fill="#171717" d="M 228.5,192.5 C 229.5,193.167 230.5,193.833 231.5,194.5C 231.5,194.833 231.5,195.167 231.5,195.5C 231.5,196.833 231.5,198.167 231.5,199.5C 229.876,199.64 228.71,198.973 228,197.5C 226.525,200.122 225.359,202.788 224.5,205.5C 221.885,203.637 221.885,201.637 224.5,199.5C 223.691,197.929 223.357,196.262 223.5,194.5C 224.822,194.33 225.989,194.663 227,195.5C 227.513,194.473 228.013,193.473 228.5,192.5 Z"/></g>
<g><path style="opacity:1" fill="#171717" d="M 234.5,197.5 C 235.72,199.05 235.72,200.716 234.5,202.5C 233.351,202.209 232.684,201.376 232.5,200C 232.684,198.624 233.351,197.791 234.5,197.5 Z"/></g>
<g><path style="opacity:0.959" fill="#927fb9" d="M 48.5,199.5 C 54.2111,203.178 60.2111,206.511 66.5,209.5C 68.4224,210.96 69.0891,212.627 68.5,214.5C 62.3005,211.436 55.9672,208.769 49.5,206.5C 48.7814,204.236 48.448,201.903 48.5,199.5 Z"/></g>
<g><path style="opacity:0.786" fill="#7e60a7" d="M 393.5,204.5 C 394.5,204.5 395.5,204.5 396.5,204.5C 396.344,207.066 396.678,209.566 397.5,212C 396.968,214.02 395.635,214.853 393.5,214.5C 393.5,211.167 393.5,207.833 393.5,204.5 Z"/></g>
<g><path style="opacity:1" fill="#b8b8b8" d="M 231.5,195.5 C 232.71,195.932 233.71,196.599 234.5,197.5C 233.351,197.791 232.684,198.624 232.5,200C 232.684,201.376 233.351,202.209 234.5,202.5C 234.167,203.167 233.833,203.833 233.5,204.5C 227.608,201.433 225.275,203.433 226.5,210.5C 225.691,208.972 225.024,207.306 224.5,205.5C 225.359,202.788 226.525,200.122 228,197.5C 228.71,198.973 229.876,199.64 231.5,199.5C 231.5,198.167 231.5,196.833 231.5,195.5 Z"/></g>
<g><path style="opacity:0.993" fill="#cbc3db" d="M 368.5,274.5 C 373.725,274.703 378.392,273.203 382.5,270C 387.255,263.911 392.588,258.578 398.5,254C 404.572,252.594 409.906,253.928 414.5,258C 422.124,268.409 427.124,279.909 429.5,292.5C 429.5,294.833 429.5,297.167 429.5,299.5C 423.833,299.5 418.167,299.5 412.5,299.5C 407.419,284.623 397.086,278.457 381.5,281C 375.904,284.601 369.904,287.268 363.5,289C 352.184,291.92 343.017,288.753 336,279.5C 332.552,271.392 327.052,265.225 319.5,261C 311.644,259.57 304.477,261.07 298,265.5C 297.5,276.828 297.333,288.162 297.5,299.5C 297.768,301.099 297.434,302.432 296.5,303.5C 296.83,287.325 296.496,271.325 295.5,255.5C 302.121,248.996 305.454,240.996 305.5,231.5C 311.139,224.244 316.306,216.578 321,208.5C 322.864,205.793 325.364,204.959 328.5,206C 331.531,208.559 333.698,211.726 335,215.5C 340.607,231.655 346.607,247.655 353,263.5C 355.075,267.579 357.908,271.079 361.5,274C 363.786,275.664 366.119,275.83 368.5,274.5 Z"/></g>
<g><path style="opacity:0.734" fill="#7f5fa6" d="M 19.5,209.5 C 20.8333,209.5 22.1667,209.5 23.5,209.5C 22.506,222.66 21.1727,222.66 19.5,209.5 Z"/></g>
<g><path style="opacity:0.972" fill="#927eb9" d="M 50.5,210.5 C 57.8184,214.218 65.485,217.051 73.5,219C 74.4533,220.955 75.7866,222.622 77.5,224C 69.0633,221.861 60.3966,220.694 51.5,220.5C 50.9492,217.193 50.6159,213.86 50.5,210.5 Z"/></g>
<g><path style="opacity:1" fill="#f4f4f5" d="M 213.5,174.5 C 214.239,174.369 214.906,174.536 215.5,175C 211.204,184.027 209.704,193.527 211,203.5C 213.47,207.792 214.803,212.459 215,217.5C 222.652,229.565 233.485,233.731 247.5,230C 251.643,227.085 255.643,223.918 259.5,220.5C 261.163,216.541 263.163,212.874 265.5,209.5C 269.754,217.778 270.587,226.444 268,235.5C 267.215,237.286 266.049,238.786 264.5,240C 258.5,243.333 252.5,246.667 246.5,250C 245.213,251.41 244.046,252.91 243,254.5C 242.233,264.869 242.567,275.203 244,285.5C 246.052,287.058 248.219,288.392 250.5,289.5C 248.797,292.192 246.464,294.192 243.5,295.5C 239.77,296.968 237.437,299.635 236.5,303.5C 216.234,300.181 196.234,295.848 176.5,290.5C 176.399,280.148 176.733,269.815 177.5,259.5C 178.117,259.389 178.617,259.056 179,258.5C 179.847,260.854 180.68,263.188 181.5,265.5C 189.31,282.568 201.643,286.901 218.5,278.5C 229.4,267.22 232.566,253.887 228,238.5C 224.938,232.77 221.104,227.603 216.5,223C 207.417,219.205 198.083,218.538 188.5,221C 186.91,222.046 185.41,223.213 184,224.5C 183.536,223.906 183.369,223.239 183.5,222.5C 191.595,206.64 199.928,190.973 208.5,175.5C 210.292,175.634 211.958,175.301 213.5,174.5 Z"/></g>
<g><path style="opacity:1" fill="#b784b8" d="M 230.5,167.5 C 226.73,167.441 223.396,168.608 220.5,171C 223.129,177.095 225.629,183.262 228,189.5C 229.126,190.944 230.626,191.61 232.5,191.5C 247.818,189.298 259.318,194.965 267,208.5C 277.094,229.298 271.261,243.131 249.5,250C 247.291,251.873 245.458,254.04 244,256.5C 243.756,265.84 244.089,275.174 245,284.5C 249.333,287.167 253.667,289.833 258,292.5C 258.68,285.668 260.013,279.001 262,272.5C 267.306,268.429 273.139,265.263 279.5,263C 285.04,258.42 288.373,252.587 289.5,245.5C 290.613,246.946 290.78,248.613 290,250.5C 288.746,254.004 287.246,257.337 285.5,260.5C 285.5,260.833 285.5,261.167 285.5,261.5C 284.833,261.833 284.167,262.167 283.5,262.5C 281.167,263.833 278.833,265.167 276.5,266.5C 271.633,267.896 267.3,270.229 263.5,273.5C 261.63,280.387 260.296,287.387 259.5,294.5C 256.312,293.075 253.312,291.408 250.5,289.5C 248.219,288.392 246.052,287.058 244,285.5C 242.567,275.203 242.233,264.869 243,254.5C 244.046,252.91 245.213,251.41 246.5,250C 252.5,246.667 258.5,243.333 264.5,240C 266.049,238.786 267.215,237.286 268,235.5C 270.587,226.444 269.754,217.778 265.5,209.5C 265.068,208.29 264.401,207.29 263.5,206.5C 262.488,205.128 261.488,203.795 260.5,202.5C 258.763,200.45 256.763,198.617 254.5,197C 253.552,196.517 252.552,196.351 251.5,196.5C 250.745,194.534 249.579,194.2 248,195.5C 246.89,193.963 245.39,193.297 243.5,193.5C 241.376,193.705 239.043,193.371 236.5,192.5C 234.443,192.436 232.777,193.102 231.5,194.5C 230.5,193.833 229.5,193.167 228.5,192.5C 225.424,187.904 223.091,182.904 221.5,177.5C 221.34,175.847 220.674,174.514 219.5,173.5C 219.32,169.344 221.32,167.01 225.5,166.5C 228.779,165.508 232.112,165.341 235.5,166C 233.618,166.198 231.952,166.698 230.5,167.5 Z"/></g>
<g><path style="opacity:1" fill="#e2e2e2" d="M 202.5,135.5 C 203.309,137.292 203.809,139.292 204,141.5C 204.687,137.674 205.52,137.674 206.5,141.5C 205.224,142.386 205.224,143.386 206.5,144.5C 207.298,144.043 207.631,143.376 207.5,142.5C 208.272,143.694 209.272,144.694 210.5,145.5C 210.672,146.492 210.338,147.158 209.5,147.5C 208.603,146.402 207.77,146.402 207,147.5C 206.333,149.5 206.333,151.5 207,153.5C 207.513,152.473 208.013,151.473 208.5,150.5C 210.628,152.403 212.961,154.069 215.5,155.5C 216.425,154.643 217.092,153.643 217.5,152.5C 221.855,156.009 226.522,159.009 231.5,161.5C 229.5,163.167 227.5,164.833 225.5,166.5C 221.32,167.01 219.32,169.344 219.5,173.5C 217.094,178.658 214.927,183.991 213,189.5C 212.333,193.833 212.333,198.167 213,202.5C 214.48,207.938 216.147,213.271 218,218.5C 228.153,230.916 239.653,232.582 252.5,223.5C 254.845,220.656 257.345,217.99 260,215.5C 260.505,212.135 261.672,209.135 263.5,206.5C 264.401,207.29 265.068,208.29 265.5,209.5C 263.163,212.874 261.163,216.541 259.5,220.5C 255.643,223.918 251.643,227.085 247.5,230C 233.485,233.731 222.652,229.565 215,217.5C 214.803,212.459 213.47,207.792 211,203.5C 209.704,193.527 211.204,184.027 215.5,175C 214.906,174.536 214.239,174.369 213.5,174.5C 215.194,172.47 216.527,170.137 217.5,167.5C 216.68,165.889 215.346,165.222 213.5,165.5C 213.719,164.325 213.386,163.325 212.5,162.5C 211.73,164.272 210.397,165.272 208.5,165.5C 202.865,164.605 201.532,161.938 204.5,157.5C 204.804,156.85 205.137,156.183 205.5,155.5C 201.514,149.371 200.514,142.705 202.5,135.5 Z"/></g>
<g><path style="opacity:1" fill="#131313" d="M 203.5,145.5 C 204.725,146.152 205.392,147.319 205.5,149C 205.333,150.167 205.167,151.333 205,152.5C 204.023,150.26 203.523,147.927 203.5,145.5 Z"/></g>
<g><path style="opacity:0.745" fill="#7e5fa6" d="M 393.5,221.5 C 395.346,221.222 396.68,221.889 397.5,223.5C 396.607,226.084 396.274,228.751 396.5,231.5C 395.5,231.5 394.5,231.5 393.5,231.5C 393.5,228.167 393.5,224.833 393.5,221.5 Z"/></g>
<g><path style="opacity:0.979" fill="#927fb9" d="M 52.5,222.5 C 61.2311,225.479 70.2311,226.979 79.5,227C 81.2134,228.378 82.5467,230.045 83.5,232C 75.5196,231.61 67.5196,231.61 59.5,232C 58.0977,233.342 58.4311,234.176 60.5,234.5C 68.7977,235.44 77.131,235.774 85.5,235.5C 84.8505,237.435 84.5172,239.435 84.5,241.5C 78.4795,241.587 72.6462,242.587 67,244.5C 66.8333,244.833 66.6667,245.167 66.5,245.5C 71.8204,246.533 77.1537,246.533 82.5,245.5C 82.5,246.833 82.5,248.167 82.5,249.5C 83.5,249.5 84.5,249.5 85.5,249.5C 81.2983,250.293 76.9649,251.126 72.5,252C 71.1667,252.667 71.1667,253.333 72.5,254C 75.146,254.497 77.8127,254.664 80.5,254.5C 79.6373,256.421 78.9707,258.421 78.5,260.5C 81.3845,261.503 85.0511,261.836 89.5,261.5C 85.6877,262.324 81.6877,262.824 77.5,263C 75.5,266 73.5,269 71.5,272C 69.7834,273.559 67.7834,274.392 65.5,274.5C 60.4054,257.361 56.0721,240.028 52.5,222.5 Z"/></g>
<g><path style="opacity:1" fill="#cfd0d0" d="M 219.5,173.5 C 220.674,174.514 221.34,175.847 221.5,177.5C 220.542,177.953 219.708,178.619 219,179.5C 214.883,186.669 213.55,194.336 215,202.5C 217.742,215.909 225.742,223.909 239,226.5C 252.36,224.147 259.527,216.147 260.5,202.5C 261.488,203.795 262.488,205.128 263.5,206.5C 261.672,209.135 260.505,212.135 260,215.5C 257.345,217.99 254.845,220.656 252.5,223.5C 239.653,232.582 228.153,230.916 218,218.5C 216.147,213.271 214.48,207.938 213,202.5C 212.333,198.167 212.333,193.833 213,189.5C 214.927,183.991 217.094,178.658 219.5,173.5 Z"/></g>
<g><path style="opacity:1" fill="#0c0c0c" d="M 233.5,204.5 C 235.248,205.789 235.581,207.289 234.5,209C 231.881,209.151 229.547,209.985 227.5,211.5C 226.893,211.376 226.56,211.043 226.5,210.5C 225.275,203.433 227.608,201.433 233.5,204.5 Z"/></g>
<g><path style="opacity:0.697" fill="#7f60a6" d="M 21.5,226.5 C 22.8221,226.33 23.9887,226.663 25,227.5C 25.2695,230.224 25.7695,232.891 26.5,235.5C 25.3493,236.731 24.1827,236.731 23,235.5C 22.4978,232.487 21.9978,229.487 21.5,226.5 Z"/></g>
<g><path style="opacity:1" fill="#c2b7d5" d="M 85.5,235.5 C 88.2254,236.713 90.5588,238.546 92.5,241C 89.854,241.497 87.1873,241.664 84.5,241.5C 84.5172,239.435 84.8505,237.435 85.5,235.5 Z"/></g>
<g><path style="opacity:0.699" fill="#7e60a8" d="M 393.5,239.5 C 394.5,239.5 395.5,239.5 396.5,239.5C 396.5,242.833 396.5,246.167 396.5,249.5C 395.022,249.762 393.689,249.429 392.5,248.5C 393.407,245.579 393.74,242.579 393.5,239.5 Z"/></g>
<g><path style="opacity:1" fill="#8264aa" d="M 96.5,211.5 C 94.4726,219.388 91.4726,226.888 87.5,234C 89.3333,235.833 91.1667,237.667 93,239.5C 95.2407,230.604 98.7407,222.27 103.5,214.5C 102.514,223.81 99.8477,232.81 95.5,241.5C 96.7567,243.679 98.2567,245.679 100,247.5C 103.398,239.033 108.065,231.366 114,224.5C 114.167,225 114.333,225.5 114.5,226C 111.283,234.434 107.283,242.434 102.5,250C 103.484,251.657 104.484,253.323 105.5,255C 106.332,255.688 106.998,255.521 107.5,254.5C 111.19,246.981 115.856,240.148 121.5,234C 122.332,233.312 122.998,233.479 123.5,234.5C 119.159,243.188 113.826,251.188 107.5,258.5C 109.089,261.421 110.589,264.421 112,267.5C 116.979,260.021 123.145,253.688 130.5,248.5C 130.833,248.833 131.167,249.167 131.5,249.5C 126.397,257.438 120.064,264.271 112.5,270C 114.037,272.313 114.537,274.813 114,277.5C 112.868,275.661 112.035,273.661 111.5,271.5C 110.833,271.167 110.167,270.833 109.5,270.5C 100.51,271.779 91.51,271.779 82.5,270.5C 84.0588,268.869 86.0588,268.036 88.5,268C 95.8634,267.533 103.197,267.533 110.5,268C 109.167,265.333 107.833,262.667 106.5,260C 100.898,260.682 95.2308,261.182 89.5,261.5C 85.0511,261.836 81.3845,261.503 78.5,260.5C 86.9922,258.413 95.6589,257.079 104.5,256.5C 103.48,254.076 101.814,252.409 99.5,251.5C 93.0338,252.572 86.7005,253.572 80.5,254.5C 77.8127,254.664 75.146,254.497 72.5,254C 71.1667,253.333 71.1667,252.667 72.5,252C 76.9649,251.126 81.2983,250.293 85.5,249.5C 90.1785,249.666 94.8452,249.499 99.5,249C 97.6499,246.982 95.6499,245.149 93.5,243.5C 89.9722,244.921 86.3055,245.588 82.5,245.5C 77.1537,246.533 71.8204,246.533 66.5,245.5C 66.6667,245.167 66.8333,244.833 67,244.5C 72.6462,242.587 78.4795,241.587 84.5,241.5C 87.1873,241.664 89.854,241.497 92.5,241C 90.5588,238.546 88.2254,236.713 85.5,235.5C 77.131,235.774 68.7977,235.44 60.5,234.5C 58.4311,234.176 58.0977,233.342 59.5,232C 67.5196,231.61 75.5196,231.61 83.5,232C 82.5467,230.045 81.2134,228.378 79.5,227C 70.2311,226.979 61.2311,225.479 52.5,222.5C 51.6618,222.158 51.3284,221.492 51.5,220.5C 60.3966,220.694 69.0633,221.861 77.5,224C 75.7866,222.622 74.4533,220.955 73.5,219C 65.485,217.051 57.8184,214.218 50.5,210.5C 44.7664,209.141 44.4331,207.808 49.5,206.5C 55.9672,208.769 62.3005,211.436 68.5,214.5C 69.0891,212.627 68.4224,210.96 66.5,209.5C 60.2111,206.511 54.2111,203.178 48.5,199.5C 46.1878,197.854 44.1878,195.854 42.5,193.5C 44.1673,192.334 45.834,192.334 47.5,193.5C 53.3815,197.559 59.0481,201.226 64.5,204.5C 59.3528,195.409 56.6861,185.742 56.5,175.5C 58.4731,178.246 59.9731,181.246 61,184.5C 62.5431,191.684 64.5431,198.684 67,205.5C 67.7242,196.668 70.0575,188.334 74,180.5C 74.0858,190.166 72.2525,199.499 68.5,208.5C 70,210.833 71.5,213.167 73,215.5C 74.6804,206.149 78.0137,197.482 83,189.5C 82.1931,199.256 79.3598,208.423 74.5,217C 75.9851,219.156 77.4851,221.323 79,223.5C 80.9554,214.593 84.2888,206.26 89,198.5C 88.3021,208.098 85.4687,217.098 80.5,225.5C 82.1491,227.65 83.9824,229.65 86,231.5C 88.2648,224.041 90.9315,216.707 94,209.5C 96.159,207.044 96.9923,207.71 96.5,211.5 Z"/></g>
<g><path style="opacity:1" fill="#8a76af" d="M 157.5,262.5 C 156.696,260.811 155.696,259.145 154.5,257.5C 153.817,257.863 153.15,258.196 152.5,258.5C 153.343,252.458 154.509,246.458 156,240.5C 157.247,247.779 157.747,255.112 157.5,262.5 Z"/></g>
<g><path style="opacity:0.732" fill="#7f62a7" d="M 29.5,253.5 C 28.5,253.5 27.5,253.5 26.5,253.5C 25.775,251.053 25.1083,248.553 24.5,246C 24.6135,244.72 25.2801,243.887 26.5,243.5C 28.2502,246.565 29.2502,249.898 29.5,253.5 Z"/></g>
<g><path style="opacity:1" fill="#c7bed9" d="M 85.5,249.5 C 84.5,249.5 83.5,249.5 82.5,249.5C 82.5,248.167 82.5,246.833 82.5,245.5C 86.3055,245.588 89.9722,244.921 93.5,243.5C 95.6499,245.149 97.6499,246.982 99.5,249C 94.8452,249.499 90.1785,249.666 85.5,249.5 Z"/></g>
<g><path style="opacity:1" fill="#c8bfd9" d="M 78.5,260.5 C 78.9707,258.421 79.6373,256.421 80.5,254.5C 86.7005,253.572 93.0338,252.572 99.5,251.5C 101.814,252.409 103.48,254.076 104.5,256.5C 95.6589,257.079 86.9922,258.413 78.5,260.5 Z"/></g>
<g><path style="opacity:0.984" fill="#cbc3db" d="M 132.5,237.5 C 132.942,248.002 131.942,258.335 129.5,268.5C 128.292,269.234 126.959,269.567 125.5,269.5C 125.719,268.325 125.386,267.325 124.5,266.5C 123.487,272.184 120.487,276.517 115.5,279.5C 115.808,280.308 116.308,280.975 117,281.5C 118.085,280.707 119.252,280.04 120.5,279.5C 122.091,289.662 125.091,299.329 129.5,308.5C 129.966,312.982 128.966,316.982 126.5,320.5C 120.124,312.419 115.29,303.419 112,293.5C 108.985,290.317 105.818,287.317 102.5,284.5C 104.743,283.526 107.076,283.192 109.5,283.5C 109.5,282.167 109.5,280.833 109.5,279.5C 102.173,278.795 94.8398,278.628 87.5,279C 86.8333,279.333 86.1667,279.667 85.5,280C 87.1749,280.985 88.8415,281.819 90.5,282.5C 81.9677,289.517 72.301,291.35 61.5,288C 56.8333,285.667 52.1667,283.333 47.5,281C 31.9837,278.427 21.6503,284.593 16.5,299.5C 10.8333,299.5 5.16667,299.5 -0.5,299.5C -0.5,297.167 -0.5,294.833 -0.5,292.5C 1.87535,282.55 5.37535,272.883 10,263.5C 13.7511,257.211 19.2511,253.877 26.5,253.5C 27.5,253.5 28.5,253.5 29.5,253.5C 31.6125,254.44 33.6125,255.606 35.5,257C 39.721,262.464 44.3877,267.464 49.5,272C 54.6407,274.598 59.974,275.432 65.5,274.5C 67.7834,274.392 69.7834,273.559 71.5,272C 73.5,269 75.5,266 77.5,263C 81.6877,262.824 85.6877,262.324 89.5,261.5C 95.2308,261.182 100.898,260.682 106.5,260C 107.833,262.667 109.167,265.333 110.5,268C 103.197,267.533 95.8634,267.533 88.5,268C 86.0588,268.036 84.0588,268.869 82.5,270.5C 91.51,271.779 100.51,271.779 109.5,270.5C 110.167,270.833 110.833,271.167 111.5,271.5C 112.035,273.661 112.868,275.661 114,277.5C 114.537,274.813 114.037,272.313 112.5,270C 120.064,264.271 126.397,257.438 131.5,249.5C 131.167,249.167 130.833,248.833 130.5,248.5C 123.145,253.688 116.979,260.021 112,267.5C 110.589,264.421 109.089,261.421 107.5,258.5C 113.826,251.188 119.159,243.188 123.5,234.5C 122.998,233.479 122.332,233.312 121.5,234C 115.856,240.148 111.19,246.981 107.5,254.5C 106.998,255.521 106.332,255.688 105.5,255C 104.484,253.323 103.484,251.657 102.5,250C 107.283,242.434 111.283,234.434 114.5,226C 114.333,225.5 114.167,225 114,224.5C 108.065,231.366 103.398,239.033 100,247.5C 98.2567,245.679 96.7567,243.679 95.5,241.5C 99.8477,232.81 102.514,223.81 103.5,214.5C 98.7407,222.27 95.2407,230.604 93,239.5C 91.1667,237.667 89.3333,235.833 87.5,234C 91.4726,226.888 94.4726,219.388 96.5,211.5C 102.032,208.688 107.365,209.188 112.5,213C 120.166,220.485 126.833,228.651 132.5,237.5 Z"/></g>
<g><path style="opacity:1" fill="#455a63" d="M 295.5,255.5 C 296.496,271.325 296.83,287.325 296.5,303.5C 293.467,311.192 287.8,315.525 279.5,316.5C 279.5,314.833 279.5,313.167 279.5,311.5C 281.194,310.473 282.527,309.139 283.5,307.5C 283.369,308.239 283.536,308.906 284,309.5C 284.862,307.913 285.529,306.246 286,304.5C 286.827,289.994 286.661,275.661 285.5,261.5C 285.5,261.167 285.5,260.833 285.5,260.5C 289.117,259.358 292.45,257.692 295.5,255.5 Z"/></g>
<g><path style="opacity:1" fill="#c7bed9" d="M 157.5,262.5 C 157.5,264.5 157.5,266.5 157.5,268.5C 156.883,268.611 156.383,268.944 156,269.5C 154.82,267.14 153.653,264.807 152.5,262.5C 152.5,261.167 152.5,259.833 152.5,258.5C 153.15,258.196 153.817,257.863 154.5,257.5C 155.696,259.145 156.696,260.811 157.5,262.5 Z"/></g>
<g><path style="opacity:1" fill="#d5cfe1" d="M 412.5,299.5 C 374.167,299.5 335.833,299.5 297.5,299.5C 297.333,288.162 297.5,276.828 298,265.5C 304.477,261.07 311.644,259.57 319.5,261C 327.052,265.225 332.552,271.392 336,279.5C 343.017,288.753 352.184,291.92 363.5,289C 369.904,287.268 375.904,284.601 381.5,281C 397.086,278.457 407.419,284.623 412.5,299.5 Z"/></g>
<g><path style="opacity:1" fill="#263238" d="M 285.5,261.5 C 286.661,275.661 286.827,289.994 286,304.5C 285.529,306.246 284.862,307.913 284,309.5C 283.536,308.906 283.369,308.239 283.5,307.5C 283.5,292.5 283.5,277.5 283.5,262.5C 284.167,262.167 284.833,261.833 285.5,261.5 Z"/></g>
<g><path style="opacity:1" fill="#f1f1f1" d="M 283.5,262.5 C 283.5,277.5 283.5,292.5 283.5,307.5C 282.527,309.139 281.194,310.473 279.5,311.5C 277.344,303.531 273.344,296.531 267.5,290.5C 269.71,289.234 271.71,287.734 273.5,286C 274.666,279.482 275.666,272.982 276.5,266.5C 278.833,265.167 281.167,263.833 283.5,262.5 Z"/></g>
<g><path style="opacity:1" fill="#c1b9d3" d="M 151.5,265.5 C 152.876,267.082 153.876,268.915 154.5,271C 152.958,274.338 151.625,274.171 150.5,270.5C 150.216,268.585 150.549,266.919 151.5,265.5 Z"/></g>
<g><path style="opacity:1" fill="#cca7ce" d="M 276.5,266.5 C 275.666,272.982 274.666,279.482 273.5,286C 271.71,287.734 269.71,289.234 267.5,290.5C 273.344,296.531 277.344,303.531 279.5,311.5C 279.5,313.167 279.5,314.833 279.5,316.5C 279.382,319.688 278.549,322.688 277,325.5C 272.362,328.898 267.529,331.898 262.5,334.5C 267.481,320.25 264.148,308.083 252.5,298C 249.794,296.092 246.794,295.259 243.5,295.5C 246.464,294.192 248.797,292.192 250.5,289.5C 253.312,291.408 256.312,293.075 259.5,294.5C 260.296,287.387 261.63,280.387 263.5,273.5C 267.3,270.229 271.633,267.896 276.5,266.5 Z"/></g>
<g><path style="opacity:1" fill="#927fb8" d="M 129.5,268.5 C 129.453,278.516 129.787,288.516 130.5,298.5C 130.5,301.167 130.5,303.833 130.5,306.5C 129.662,306.842 129.328,307.508 129.5,308.5C 125.091,299.329 122.091,289.662 120.5,279.5C 119.252,280.04 118.085,280.707 117,281.5C 116.308,280.975 115.808,280.308 115.5,279.5C 120.487,276.517 123.487,272.184 124.5,266.5C 125.386,267.325 125.719,268.325 125.5,269.5C 126.959,269.567 128.292,269.234 129.5,268.5 Z"/></g>
<g><path style="opacity:1" fill="#cecfcf" d="M 181.5,265.5 C 180.68,263.188 179.847,260.854 179,258.5C 178.617,259.056 178.117,259.389 177.5,259.5C 177.173,250.318 177.507,241.318 178.5,232.5C 178.335,235.85 178.502,239.183 179,242.5C 180.602,237.168 182.935,232.168 186,227.5C 188.574,224.921 191.408,223.921 194.5,224.5C 189.828,227.006 186.328,230.673 184,235.5C 178.866,252.023 183.033,265.523 196.5,276C 210.459,280.732 219.292,275.899 223,261.5C 226.596,244.869 221.096,232.369 206.5,224C 203.183,223.502 199.85,223.335 196.5,223.5C 195.262,223.19 195.262,222.69 196.5,222C 205.932,220.738 213.765,223.571 220,230.5C 221.875,235.49 223.875,240.49 226,245.5C 228.975,260.152 224.142,271.318 211.5,279C 205.431,279.804 199.431,279.471 193.5,278C 189.296,273.964 185.296,269.798 181.5,265.5 Z"/></g>
<g><path style="opacity:1" fill="#f2f2f2" d="M 196.5,223.5 C 199.85,223.335 203.183,223.502 206.5,224C 221.096,232.369 226.596,244.869 223,261.5C 219.292,275.899 210.459,280.732 196.5,276C 183.033,265.523 178.866,252.023 184,235.5C 186.328,230.673 189.828,227.006 194.5,224.5C 195.492,224.672 196.158,224.338 196.5,223.5 Z"/></g>
<g><path style="opacity:1" fill="#1f1f1f" d="M 203.5,243.5 C 205.167,243.5 206.833,243.5 208.5,243.5C 216.92,249.94 217.587,257.107 210.5,265C 206.646,265.354 202.812,265.854 199,266.5C 193.73,265.341 190.73,262.008 190,256.5C 189.305,246.618 193.805,242.284 203.5,243.5 Z"/></g>
<g><path style="opacity:1" fill="#e9e9e9" d="M 200.5,247.5 C 202.888,248.219 204.388,249.885 205,252.5C 205.936,255.792 205.436,258.792 203.5,261.5C 201.803,260.636 200.637,259.303 200,257.5C 199.341,254.112 199.508,250.779 200.5,247.5 Z"/></g>
<g><path style="opacity:1" fill="#e8e8e8" d="M 194.5,246.5 C 195.978,246.238 197.311,246.571 198.5,247.5C 196.949,253.299 197.949,258.632 201.5,263.5C 196.53,264.741 193.363,262.741 192,257.5C 190.946,253.345 191.78,249.678 194.5,246.5 Z"/></g>
<g><path style="opacity:1" fill="#e2e2e2" d="M 202.5,246.5 C 207.212,244.355 210.712,245.689 213,250.5C 214.369,255.48 213.203,259.647 209.5,263C 208.056,263.781 206.723,263.614 205.5,262.5C 206.6,258.558 206.767,254.558 206,250.5C 205.34,248.676 204.173,247.343 202.5,246.5 Z"/></g>
<g><path style="opacity:1" fill="#4b4b4b" d="M 208.5,236.5 C 209.586,236.62 210.253,237.287 210.5,238.5C 209.813,240.177 209.146,241.844 208.5,243.5C 206.833,243.5 205.167,243.5 203.5,243.5C 204.37,241.968 204.036,240.468 202.5,239C 204.333,239.167 206.167,239.333 208,239.5C 208.483,238.552 208.649,237.552 208.5,236.5 Z"/></g>
<g><path style="opacity:1" fill="#937fb7" d="M 152.5,262.5 C 153.653,264.807 154.82,267.14 156,269.5C 156.383,268.944 156.883,268.611 157.5,268.5C 157.963,271.482 158.296,274.482 158.5,277.5C 157.167,277.5 155.833,277.5 154.5,277.5C 154.5,278.833 154.5,280.167 154.5,281.5C 156.167,281.5 157.833,281.5 159.5,281.5C 159.5,282.167 159.5,282.833 159.5,283.5C 157.5,283.5 155.5,283.5 153.5,283.5C 153.5,284.833 153.5,286.167 153.5,287.5C 155.527,287.338 157.527,287.505 159.5,288C 157.231,290.023 154.564,290.856 151.5,290.5C 149.425,298.651 145.758,305.984 140.5,312.5C 140.5,311.833 140.5,311.167 140.5,310.5C 141.167,306.833 141.833,303.167 142.5,299.5C 145.273,289.86 147.94,280.194 150.5,270.5C 151.625,274.171 152.958,274.338 154.5,271C 153.876,268.915 152.876,267.082 151.5,265.5C 151.263,264.209 151.596,263.209 152.5,262.5 Z"/></g>
<g><path style="opacity:1" fill="#c0b8d2" d="M 158.5,277.5 C 159.434,278.568 159.768,279.901 159.5,281.5C 157.833,281.5 156.167,281.5 154.5,281.5C 154.5,280.167 154.5,278.833 154.5,277.5C 155.833,277.5 157.167,277.5 158.5,277.5 Z"/></g>
<g><path style="opacity:1" fill="#e3e4e4" d="M 181.5,265.5 C 185.296,269.798 189.296,273.964 193.5,278C 199.431,279.471 205.431,279.804 211.5,279C 224.142,271.318 228.975,260.152 226,245.5C 223.875,240.49 221.875,235.49 220,230.5C 213.765,223.571 205.932,220.738 196.5,222C 195.262,222.69 195.262,223.19 196.5,223.5C 196.158,224.338 195.492,224.672 194.5,224.5C 191.408,223.921 188.574,224.921 186,227.5C 182.935,232.168 180.602,237.168 179,242.5C 178.502,239.183 178.335,235.85 178.5,232.5C 179.659,228.849 181.326,225.515 183.5,222.5C 183.369,223.239 183.536,223.906 184,224.5C 185.41,223.213 186.91,222.046 188.5,221C 198.083,218.538 207.417,219.205 216.5,223C 221.104,227.603 224.938,232.77 228,238.5C 232.566,253.887 229.4,267.22 218.5,278.5C 201.643,286.901 189.31,282.568 181.5,265.5 Z"/></g>
<g><path style="opacity:1" fill="#7a7a7a" d="M 208.5,236.5 C 206.226,236.471 203.893,236.638 201.5,237C 203.906,234.062 206.24,233.895 208.5,236.5 Z"/></g>
<g><path style="opacity:1" fill="#d5cfe1" d="M 90.5,282.5 C 92.288,282.215 93.9547,282.548 95.5,283.5C 97.1792,287.521 98.8459,291.521 100.5,295.5C 100.265,296.097 99.7648,296.43 99,296.5C 93.7239,293.743 88.2239,292.743 82.5,293.5C 84.2516,295.246 85.5849,297.246 86.5,299.5C 63.1667,299.5 39.8333,299.5 16.5,299.5C 21.6503,284.593 31.9837,278.427 47.5,281C 52.1667,283.333 56.8333,285.667 61.5,288C 72.301,291.35 81.9677,289.517 90.5,282.5 Z"/></g>
<g><path style="opacity:1" fill="#937eb8" d="M 126.5,320.5 C 126.5,320.833 126.5,321.167 126.5,321.5C 116.139,314.473 107.473,305.806 100.5,295.5C 98.8459,291.521 97.1792,287.521 95.5,283.5C 93.9547,282.548 92.288,282.215 90.5,282.5C 88.8415,281.819 87.1749,280.985 85.5,280C 86.1667,279.667 86.8333,279.333 87.5,279C 94.8398,278.628 102.173,278.795 109.5,279.5C 109.5,280.833 109.5,282.167 109.5,283.5C 107.076,283.192 104.743,283.526 102.5,284.5C 105.818,287.317 108.985,290.317 112,293.5C 115.29,303.419 120.124,312.419 126.5,320.5 Z"/></g>
<g><path style="opacity:1" fill="#c9c1d9" d="M 159.5,283.5 C 160.992,287.264 161.992,291.264 162.5,295.5C 156.58,304.754 148.913,312.42 139.5,318.5C 139.325,316.379 139.659,314.379 140.5,312.5C 145.758,305.984 149.425,298.651 151.5,290.5C 154.564,290.856 157.231,290.023 159.5,288C 157.527,287.505 155.527,287.338 153.5,287.5C 153.5,286.167 153.5,284.833 153.5,283.5C 155.5,283.5 157.5,283.5 159.5,283.5 Z"/></g>
<g><path style="opacity:1" fill="#29363c" d="M 176.5,290.5 C 196.234,295.848 216.234,300.181 236.5,303.5C 236.5,304.833 236.5,306.167 236.5,307.5C 217.87,303.623 199.203,299.789 180.5,296C 179.016,295.338 177.683,294.504 176.5,293.5C 175.375,292.348 175.375,291.348 176.5,290.5 Z"/></g>
<g><path style="opacity:1" fill="#cac2db" d="M 100.5,295.5 C 107.473,305.806 116.139,314.473 126.5,321.5C 126.5,322.167 126.5,322.833 126.5,323.5C 115.896,320.698 106.23,316.031 97.5,309.5C 93.8592,306.195 90.1925,302.862 86.5,299.5C 85.5849,297.246 84.2516,295.246 82.5,293.5C 88.2239,292.743 93.7239,293.743 99,296.5C 99.7648,296.43 100.265,296.097 100.5,295.5 Z"/></g>
<g><path style="opacity:1" fill="#eaa1a5" d="M 175.5,295.5 C 175.5,298.167 175.5,300.833 175.5,303.5C 172.315,303.02 169.481,303.686 167,305.5C 165.624,304.295 164.458,302.962 163.5,301.5C 163.5,299.833 163.5,298.167 163.5,296.5C 167.548,296.605 171.548,296.272 175.5,295.5 Z"/></g>
<g><path style="opacity:1" fill="#8267aa" d="M 175.5,295.5 C 178.456,297.149 181.456,298.483 184.5,299.5C 184.664,302.187 184.497,304.854 184,307.5C 183.184,308.823 182.017,309.489 180.5,309.5C 178.051,308.06 176.385,306.06 175.5,303.5C 175.5,300.833 175.5,298.167 175.5,295.5 Z"/></g>
<g><path style="opacity:0.988" fill="#e9e5f1" d="M -0.5,299.5 C 5.16667,299.5 10.8333,299.5 16.5,299.5C 39.8333,299.5 63.1667,299.5 86.5,299.5C 90.1925,302.862 93.8592,306.195 97.5,309.5C 90.1851,308.585 82.8517,308.418 75.5,309C 90.2335,320.023 106.9,325.19 125.5,324.5C 124.329,333.161 127.996,336.994 136.5,336C 137.701,335.097 138.535,333.931 139,332.5C 139.498,329.183 139.665,325.85 139.5,322.5C 147.293,320.603 154.626,317.603 161.5,313.5C 166.597,316.748 171.597,320.248 176.5,324C 181.719,326.409 186.553,325.909 191,322.5C 191.667,320.833 191.667,319.167 191,317.5C 187.031,315.353 183.531,312.687 180.5,309.5C 182.017,309.489 183.184,308.823 184,307.5C 184.497,304.854 184.664,302.187 184.5,299.5C 201.871,302.618 219.205,305.951 236.5,309.5C 236.674,311.861 237.007,314.194 237.5,316.5C 233.901,315.656 230.234,315.323 226.5,315.5C 227.167,318.167 227.833,320.833 228.5,323.5C 232.684,324.166 237.018,324.833 241.5,325.5C 246.045,334.954 253.045,337.954 262.5,334.5C 267.529,331.898 272.362,328.898 277,325.5C 278.549,322.688 279.382,319.688 279.5,316.5C 287.8,315.525 293.467,311.192 296.5,303.5C 297.434,302.432 297.768,301.099 297.5,299.5C 335.833,299.5 374.167,299.5 412.5,299.5C 418.167,299.5 423.833,299.5 429.5,299.5C 429.5,302.167 429.5,304.833 429.5,307.5C 426.033,310.74 422.033,313.24 417.5,315C 410.614,317.138 403.614,318.805 396.5,320C 369.81,322.906 343.144,325.906 316.5,329C 314.519,329.605 314.185,330.605 315.5,332C 332.685,337.651 332.685,342.985 315.5,348C 303.646,350.865 291.646,352.865 279.5,354C 265.34,355.101 251.34,356.268 237.5,357.5C 213.167,357.5 188.833,357.5 164.5,357.5C 145.529,356.387 126.529,354.22 107.5,351C 95.3144,348.541 94.6477,344.707 105.5,339.5C 103.543,337.515 101.21,336.015 98.5,335C 70.1262,327.925 41.4595,322.259 12.5,318C 6.8631,317.522 2.52977,315.022 -0.5,310.5C -0.5,306.833 -0.5,303.167 -0.5,299.5 Z"/></g>
<g><path style="opacity:1" fill="#efa3a6" d="M 130.5,298.5 C 134.246,300.799 138.246,301.132 142.5,299.5C 141.833,303.167 141.167,306.833 140.5,310.5C 137.585,308.311 134.419,307.644 131,308.5C 130.536,307.906 130.369,307.239 130.5,306.5C 130.5,303.833 130.5,301.167 130.5,298.5 Z"/></g>
<g><path style="opacity:1" fill="#9380b8" d="M 162.5,295.5 C 163.167,295.5 163.5,295.833 163.5,296.5C 163.5,298.167 163.5,299.833 163.5,301.5C 162.011,305.236 161.344,309.236 161.5,313.5C 154.626,317.603 147.293,320.603 139.5,322.5C 139.5,321.167 139.5,319.833 139.5,318.5C 148.913,312.42 156.58,304.754 162.5,295.5 Z"/></g>
<g><path style="opacity:1" fill="#4b5f68" d="M 176.5,293.5 C 177.683,294.504 179.016,295.338 180.5,296C 199.203,299.789 217.87,303.623 236.5,307.5C 236.5,308.167 236.5,308.833 236.5,309.5C 219.205,305.951 201.871,302.618 184.5,299.5C 181.456,298.483 178.456,297.149 175.5,295.5C 175.328,294.508 175.662,293.842 176.5,293.5 Z"/></g>
<g><path style="opacity:1" fill="#8163a9" d="M 192.5,303.5 C 201.795,303.795 208.461,308.129 212.5,316.5C 204.404,321.548 198.571,319.548 195,310.5C 193.457,308.622 191.624,307.122 189.5,306C 190.571,305.148 191.571,304.315 192.5,303.5 Z"/></g>
<g><path style="opacity:1" fill="#b47eb6" d="M 243.5,295.5 C 246.794,295.259 249.794,296.092 252.5,298C 264.148,308.083 267.481,320.25 262.5,334.5C 253.045,337.954 246.045,334.954 241.5,325.5C 237.018,324.833 232.684,324.166 228.5,323.5C 232.514,323.666 236.514,323.499 240.5,323C 239.207,320.948 238.207,318.781 237.5,316.5C 237.007,314.194 236.674,311.861 236.5,309.5C 236.5,308.833 236.5,308.167 236.5,307.5C 236.5,306.167 236.5,304.833 236.5,303.5C 237.437,299.635 239.77,296.968 243.5,295.5 Z"/></g>
<g><path style="opacity:1" fill="#f8f8f9" d="M 243.5,296.5 C 251.878,298.367 257.711,303.367 261,311.5C 263.825,318.391 264.158,325.391 262,332.5C 258.974,335.864 255.474,336.364 251.5,334C 241.045,325.589 236.878,314.755 239,301.5C 240.025,299.313 241.525,297.646 243.5,296.5 Z"/></g>
<g><path style="opacity:1" fill="#9683bb" d="M 97.5,309.5 C 106.23,316.031 115.896,320.698 126.5,323.5C 126.5,324.167 126.167,324.5 125.5,324.5C 106.9,325.19 90.2335,320.023 75.5,309C 82.8517,308.418 90.1851,308.585 97.5,309.5 Z"/></g>
<g><path style="opacity:1" fill="#3e4f58" d="M 163.5,301.5 C 164.458,302.962 165.624,304.295 167,305.5C 169.481,303.686 172.315,303.02 175.5,303.5C 176.385,306.06 178.051,308.06 180.5,309.5C 183.531,312.687 187.031,315.353 191,317.5C 191.667,319.167 191.667,320.833 191,322.5C 186.553,325.909 181.719,326.409 176.5,324C 171.597,320.248 166.597,316.748 161.5,313.5C 161.344,309.236 162.011,305.236 163.5,301.5 Z"/></g>
<g><path style="opacity:1" fill="#8062a8" d="M 237.5,316.5 C 238.207,318.781 239.207,320.948 240.5,323C 236.514,323.499 232.514,323.666 228.5,323.5C 227.833,320.833 227.167,318.167 226.5,315.5C 230.234,315.323 233.901,315.656 237.5,316.5 Z"/></g>
<g><path style="opacity:1" fill="#3c4d55" d="M 130.5,306.5 C 130.369,307.239 130.536,307.906 131,308.5C 134.419,307.644 137.585,308.311 140.5,310.5C 140.5,311.167 140.5,311.833 140.5,312.5C 139.659,314.379 139.325,316.379 139.5,318.5C 139.5,319.833 139.5,321.167 139.5,322.5C 139.665,325.85 139.498,329.183 139,332.5C 138.535,333.931 137.701,335.097 136.5,336C 127.996,336.994 124.329,333.161 125.5,324.5C 126.167,324.5 126.5,324.167 126.5,323.5C 126.5,322.833 126.5,322.167 126.5,321.5C 126.5,321.167 126.5,320.833 126.5,320.5C 128.966,316.982 129.966,312.982 129.5,308.5C 129.328,307.508 129.662,306.842 130.5,306.5 Z"/></g>
</svg>
